<svg width="198" height="204" viewBox="0 0 198 204" fill="none" xmlns="http://www.w3.org/2000/svg">
<path d="M197.034 116.839C197.034 142.957 185.519 166.387 167.278 182.327C163.576 185.562 159.59 188.493 155.373 191.071C155.373 191.076 155.373 191.076 155.373 191.076C154.346 191.705 153.301 192.31 152.242 192.9C139.753 199.839 125.377 203.797 110.075 203.8H109.889C109.567 203.8 109.242 203.795 108.92 203.792C108.725 203.792 108.527 203.786 108.327 203.783C108.096 203.778 107.87 203.774 107.638 203.769C107.421 203.764 107.209 203.755 106.997 203.747C106.684 203.738 106.372 203.724 106.065 203.71C105.418 203.682 104.771 203.647 104.128 203.602C103.888 203.588 103.653 203.571 103.413 203.552C102.769 203.501 102.133 203.448 101.495 203.385C101.142 203.354 100.794 203.317 100.444 203.277C83.4675 201.414 67.965 194.669 55.3666 184.483C35.6508 168.543 23.0488 144.162 23.0488 116.841C23.0488 96.5535 29.9993 77.8861 41.65 63.095C57.5785 42.8666 82.2885 29.8799 110.04 29.8799C158.09 29.8781 197.034 68.8105 197.034 116.839Z" fill="#F7BA34" fill-opacity="0.5"/>
<path d="M53.9337 74.2054L57.6289 73.7065C57.6289 73.7065 64.7793 73.8508 66.7095 89.9717C68.6397 106.093 70.0621 112.194 70.0621 112.194C70.0621 112.194 73.9556 141.675 79.687 145.52C85.4185 149.365 90.6231 147.857 102.161 143.937C113.698 140.017 120.473 136.641 120.473 136.641L125.238 136.398L113.398 144.766L76.597 160.148L53.2172 136.024L50.6523 83.8546L53.9337 74.2054Z" fill="#EBA278"/>
<path d="M65.7529 59.7328C65.7529 59.7328 58.3433 63.3519 57.7782 69.2325C57.6095 70.9916 57.4165 72.4535 57.6878 74.1171C50.9947 70.7118 49.3671 68.1287 49.3671 68.1287L36.2539 59.5746L42.281 47.7456L58.119 42.3169L65.7529 59.7328Z" fill="#F7AE80"/>
<path d="M87.9469 163.912C81.9598 168.118 76.3762 171.842 71.5802 174.922H71.575C62.0179 181.065 55.5979 184.665 55.3666 184.479C35.6508 168.539 23.0488 144.158 23.0488 116.837C23.0488 96.5498 29.9993 77.8824 41.65 63.0913L49.3656 68.1254C49.3656 68.1254 50.9949 70.7085 57.6863 74.1138C58.1436 76.9454 59.8217 80.3507 64.5272 86.7198C71.9941 96.821 71.0116 103.718 69.7665 114.8C68.5215 125.882 70.8986 140.808 75.1972 147.141C78.1116 151.438 82.7493 159.083 87.0079 163.086C87.3226 163.383 87.6391 163.66 87.9469 163.912Z" fill="#38A585"/>
<path d="M170.335 153.251C169.409 162.853 168.544 173.904 167.277 182.327C165.873 183.553 164.427 184.738 162.942 185.873C162.458 186.249 161.969 186.616 161.47 186.977C159.796 188.208 158.073 189.38 156.308 190.492C154.977 191.328 153.619 192.13 152.24 192.898C152.277 192.486 155.254 166.459 151.385 165.071C147.996 163.855 142.394 170.046 136.738 176.833C131.095 183.595 114.231 203.786 110.073 203.8H109.887C106.698 203.795 103.547 203.62 100.443 203.275H100.438C83.4644 201.412 67.9619 194.667 55.3652 184.481C55.52 184.608 58.4657 183.024 63.2756 180.111C63.6825 179.866 64.1033 179.609 64.538 179.343C66.6108 178.075 68.9775 176.593 71.5737 174.924H71.5789C76.3748 171.844 81.9585 168.12 87.9456 163.914C89.6201 165.283 91.7329 165.805 93.6927 165.297C107.348 161.751 129.739 143.106 146.323 135.448C151.228 133.186 155.626 131.884 159.137 132.218C169.299 133.191 171.579 140.36 170.335 153.251Z" fill="#202323"/>
<path d="M162.941 185.873C162.458 186.249 161.969 186.615 161.47 186.977C162.049 180.721 163.899 156.503 158.702 149.47C157.453 147.779 156.205 146.864 154.887 146.675C152.424 146.322 149.489 148.366 145.29 151.533C144.231 152.335 142.44 153.922 140.177 155.938C128.634 166.197 104.837 187.358 85.5979 187.358C85.2501 187.358 84.9058 187.352 84.5615 187.34C73.1942 186.879 65.8785 182.12 63.2754 180.112C63.6823 179.867 64.1031 179.61 64.5378 179.344C67.3427 181.385 74.3071 185.569 84.6154 185.984C103.49 186.758 127.657 165.253 139.271 154.923C141.561 152.893 143.372 151.281 144.474 150.45C149.08 146.977 152.094 144.896 155.08 145.335C156.777 145.58 158.316 146.67 159.794 148.669C165.037 155.761 163.625 178.021 162.941 185.873Z" fill="#3A3A3A"/>
<path d="M146.324 135.447C121.818 164.035 92.4647 174.397 71.582 174.922C76.378 171.842 81.9616 168.118 87.9487 163.912C89.6233 165.281 91.7361 165.803 93.6958 165.295C107.352 161.751 129.74 143.104 146.324 135.447Z" fill="#303030"/>
<path d="M87.9468 163.912C81.9597 168.119 76.3761 171.842 71.5801 174.922H71.5749C50.6418 175.439 33.4387 107.001 33.4387 107.001L30.5156 89.5865L33.4561 84.6116L42.2794 92.0758L71.7679 162.264L87.0078 163.092C87.3225 163.384 87.639 163.66 87.9468 163.912Z" fill="#1A8364"/>
<path opacity="0.49" d="M57.8525 55.7172C57.0892 54.4969 56.4771 53.2332 55.9867 51.9712C53.5522 52.4979 51.0169 53.7129 53.2514 56.4994C57.0213 61.1997 62.5128 62.048 62.5128 62.048C61.04 60.5479 59.6628 58.6114 57.8525 55.7172Z" fill="#E46454"/>
<path d="M96.1273 32.3096L98.3687 33.1005C98.3687 33.1005 98.9339 37.6809 97.2471 41.526C95.5604 45.371 89.4516 50.565 90.6392 56.7359C91.1557 59.4216 91.5435 60.2977 88.3769 60.5237C88.3769 60.5237 82.0229 72.0207 72.9736 67.9496C63.9243 63.8785 62.1888 63.0494 57.2868 55.2097C52.3848 47.3701 53.7047 37.7956 53.7047 37.7956L96.1273 32.3096Z" fill="#F7AE80"/>
<path opacity="0.65" d="M78.3711 62.9716C83.6599 62.9716 87.9473 58.6858 87.9473 53.3989C87.9473 48.112 83.6599 43.8262 78.3711 43.8262C73.0823 43.8262 68.7949 48.112 68.7949 53.3989C68.7949 58.6858 73.0823 62.9716 78.3711 62.9716Z" fill="url(#paint0_radial_9_1197)"/>
<path d="M40.8496 118.384C40.8496 118.384 32.7045 95.9186 38.436 87.4758C44.1675 79.0329 51.1058 71.7947 55.1783 78.5792C59.2508 85.3638 60.6089 92.5255 62.7582 107.68C64.9075 122.832 69.2409 157.221 80.1404 154.558C91.0399 151.895 110.723 143.64 116.379 139.569C122.036 135.498 125.938 132.104 132.838 134.197C139.738 136.29 138.693 137.25 135.808 137.392C132.923 137.533 127.861 136.572 124.693 139.626C121.525 142.678 117.51 146.694 103.143 154.156C88.7759 161.619 74.3342 171.909 69.2061 168.066C64.0763 164.219 46.1272 136.628 40.8496 118.384Z" fill="#F7AE80"/>
<path d="M156.31 169.535C156.019 182.734 155.395 190.808 155.372 191.07C155.372 191.076 155.372 191.076 155.372 191.076C154.345 191.705 153.299 192.31 152.24 192.899C152.277 192.487 155.254 166.46 151.385 165.073C147.996 163.856 142.395 170.048 136.738 176.834C131.095 183.596 114.231 203.788 110.073 203.802H109.887C109.566 203.802 109.241 203.796 108.919 203.793C108.724 203.793 108.526 203.788 108.326 203.784C108.095 203.779 107.869 203.775 107.637 203.77C107.42 203.765 107.208 203.756 106.996 203.748C106.683 203.739 106.371 203.725 106.064 203.711C105.417 203.683 104.77 203.649 104.126 203.603C103.886 203.589 103.652 203.572 103.412 203.553C102.768 203.503 102.132 203.449 101.494 203.386C101.141 203.355 100.793 203.318 100.443 203.278C100.443 203.278 112.864 198.199 131.646 174.93C148.051 154.608 156.649 154.007 156.31 169.535Z" fill="#303030"/>
<path d="M90.0262 49.9065C89.3028 45.2044 84.9834 44.9819 84.8008 44.975L84.8338 44.071C84.886 44.0728 90.0819 44.3161 90.9218 49.7691L90.0262 49.9065Z" fill="#501B55"/>
<path d="M83.0969 65.57C82.9769 65.5144 80.1581 64.1498 80.4624 60.3743L81.3649 60.4473C81.1128 63.5797 83.3855 64.7043 83.4829 64.7513L83.0969 65.57Z" fill="#501B55"/>
<path d="M98.3671 33.1041C96.1413 38.3051 79.159 42.9967 79.159 42.9967C79.159 42.9967 73.4432 47.2937 67.7883 54.6449C62.1316 61.9961 63.9418 71.7792 63.9418 71.7792C57.7791 60.4126 71.9199 45.9379 71.9199 45.9379C54.1604 54.7579 53.0144 61.4973 49.6444 67.4231C45.3371 75.0003 53.5448 88.5693 43.0748 94.5629C31.3093 101.299 39.8526 113.578 36.3921 122.4C36.053 123.269 35.5731 124.065 34.9801 124.783C30.4016 130.405 19.1073 131.641 13.6628 129.768C7.64437 127.702 4.27435 116.804 7.06531 107.378C9.85279 97.956 10.1554 97.4258 4.95253 88.0808C-0.253786 78.7306 -0.75981 75.8798 0.728702 68.1775C2.65194 58.2171 11.0231 53.9653 22.0322 49.4423C26.6925 47.5284 28.4035 40.1424 30.9006 31.5988C31.0537 31.0651 31.2136 30.5315 31.3754 29.9926C34.4219 19.8688 38.8649 8.53696 50.653 2.85104C52.178 2.11401 53.8074 1.52994 55.4993 1.09189C66.6127 -1.80756 80.618 1.35959 87.9475 7.14808C88.7491 7.78081 89.5038 8.43788 90.2098 9.11581C92.1383 10.9514 93.712 12.9244 94.9693 14.9321C99.3809 21.9357 99.9704 29.3668 98.3671 33.1041Z" fill="#202323"/>
<path d="M55.4994 1.0918C55.4994 1.0918 41.4594 9.72238 35.888 29.8691C35.7071 30.5244 35.535 31.1902 35.3767 31.8681C35.2411 32.4192 35.1141 32.9771 34.9959 33.5421C32.271 46.5688 27.7655 53.1378 23.0495 54.6431C18.3353 56.1502 5.28998 62.9712 4.75961 70.3972C3.72322 85.0301 13.2073 86.4554 12.7551 97.012C12.303 107.565 5.51604 116.928 12.9812 124.903C18.2397 130.521 29.1479 127.816 34.9768 124.781C30.3982 130.403 19.1039 131.639 13.6594 129.767C7.641 127.7 4.27098 116.802 7.06194 107.376C9.84942 97.9542 10.152 97.424 4.94915 88.079C-0.253684 78.7305 -0.759708 75.8797 0.728804 68.1774C2.65205 58.217 11.0232 53.9652 22.0323 49.4422C26.6926 47.5283 28.4037 40.1423 30.9007 31.5987C31.0538 31.065 31.2137 30.5314 31.3755 29.9925C34.422 19.8687 38.865 8.53687 50.6531 2.85094C52.1781 2.11391 53.8057 1.53158 55.4994 1.0918Z" fill="#353535"/>
<path d="M94.969 14.9335C77.3225 34.112 39.675 32.3077 30.9004 31.5967C31.0534 31.063 31.2134 30.5294 31.3751 29.9905C67.5706 29.5525 83.8365 16.5692 90.2079 9.11548C92.1363 10.9528 93.7118 12.9241 94.969 14.9335Z" fill="#505050"/>
<path d="M35.8876 29.8689C35.7068 30.5242 35.5346 31.19 35.3764 31.8679C33.507 31.7862 31.982 31.6819 30.9004 31.5968C31.0534 31.0631 31.2134 30.5294 31.3751 29.9906C32.9141 29.9732 34.4217 29.9332 35.8876 29.8689Z" fill="#616262"/>
<mask id="mask0_9_1197" style="mask-type:alpha" maskUnits="userSpaceOnUse" x="99" y="61" width="59" height="100">
<path d="M157.78 92.412L156.925 90.3834L105.909 61.2324L99.5215 160.544L149.161 131.808L153.028 120.004L157.78 92.412Z" fill="url(#paint1_linear_9_1197)"/>
</mask>
<g mask="url(#mask0_9_1197)">
<path opacity="0.23" d="M157.778 92.4128L156.923 90.3842L105.907 61.2332L99.5195 160.545L149.159 131.809L153.026 120.005L157.778 92.4128Z" fill="url(#paint2_linear_9_1197)"/>
</g>
<defs>
<radialGradient id="paint0_radial_9_1197" cx="0" cy="0" r="1" gradientUnits="userSpaceOnUse" gradientTransform="translate(78.3704 53.3995) scale(9.57628 9.5728)">
<stop stop-color="#E56457"/>
<stop offset="1" stop-color="#F7AE80"/>
</radialGradient>
<linearGradient id="paint1_linear_9_1197" x1="99.5214" y1="110.888" x2="157.78" y2="110.888" gradientUnits="userSpaceOnUse">
<stop/>
<stop offset="1" stop-color="white"/>
</linearGradient>
<linearGradient id="paint2_linear_9_1197" x1="99.5194" y1="110.889" x2="157.778" y2="110.889" gradientUnits="userSpaceOnUse">
<stop stop-color="#E8E8E8"/>
<stop offset="1" stop-color="#E8E8E8"/>
</linearGradient>
</defs>
</svg>
