<svg width="174" height="212" viewBox="0 0 174 212" fill="none" xmlns="http://www.w3.org/2000/svg">
<path d="M146.682 117.933H132.302V62.2643C132.302 36.7521 111.949 15.9586 86.8754 15.9586C61.8014 15.9586 41.4485 36.7521 41.4485 62.2643V117.933H27.082V62.2643C27.082 28.5997 53.9333 1.25 86.8818 1.25C119.83 1.25 146.682 28.5997 146.682 62.2643V117.933Z" fill="#FBF5FB" stroke="#2D3933" stroke-width="2.5"/>
<path d="M173.77 205.325C173.77 209.011 170.84 212 167.225 212H6.5452C2.93049 212 0 209.011 0 205.325V98.8473C0 95.1607 2.93049 92.1719 6.5452 92.1719H167.225C170.84 92.1719 173.77 95.1607 173.77 98.8473V205.325Z" fill="#F2CB30"/>
<path d="M130.628 92.5977C130.628 92.5977 143.409 78.4168 145.009 58.2119V92.5977H130.628Z" fill="#CCC4CC"/>
<path d="M173.77 205.325V140.085C120.834 185.759 44.5058 202.922 1.25195 209.222C2.43964 210.894 4.36318 212 6.54491 212H167.225C170.84 212 173.77 209.011 173.77 205.325Z" fill="#EAB531"/>
<path d="M101.245 134.041C101.245 125.95 94.8155 119.394 86.8825 119.394C78.9495 119.394 72.5205 125.95 72.5205 134.041C72.5205 138.86 74.8184 143.126 78.3428 145.799L73.7727 178.919H99.9923L95.4222 145.799C98.9466 143.126 101.245 138.86 101.245 134.041Z" fill="#72716F"/>
<path d="M73.7725 178.913C73.7725 178.913 94.2601 170.92 95.7641 148.268L99.992 178.913H73.7725Z" fill="#5C5A5A"/>
</svg>
