<svg width="225" height="232" viewBox="0 0 225 232" fill="none" xmlns="http://www.w3.org/2000/svg">
<path opacity="0.12" d="M112.429 232C164.821 232 207.292 230.223 207.292 228.03C207.292 225.838 164.821 224.061 112.429 224.061C60.0372 224.061 17.5654 225.838 17.5654 228.03C17.5654 230.223 60.0372 232 112.429 232Z" fill="#0D263A"/>
<path d="M133.512 117.56H91.3564V140.238H133.512V117.56Z" fill="#38A585"/>
<path d="M154.212 106.341L145.045 75.8936C144.135 72.8639 141.932 70.3941 139.021 69.1042L115.927 58.9451L112.43 61.8948L108.933 58.9451L85.8386 69.1042C82.9278 70.3841 80.7245 72.8639 79.8149 75.8936L70.6479 106.341C68.9601 111.94 73.205 117.56 79.1074 117.56H112.43H145.752C151.655 117.56 155.9 111.931 154.212 106.341Z" fill="#38A585"/>
<path d="M79.8145 75.8936C80.7241 72.8739 82.9275 70.3941 85.8382 69.1042L93.8025 65.5945L87.9607 104.351H99.2198C106.517 104.351 112.43 110.201 112.43 117.42V117.55H79.107C73.2046 117.55 68.9698 111.93 70.6476 106.331L79.8145 75.8936Z" fill="#EF7D6E"/>
<path d="M79.815 75.8936C80.7247 72.8739 82.928 70.3941 85.8388 69.1042L93.803 65.5945L90.3869 88.2425H76.0957L79.815 75.8936Z" fill="#138261"/>
<path d="M87.9714 104.361H79.7949" stroke="#B0322F" stroke-width="1.0498" stroke-miterlimit="10" stroke-linecap="round"/>
<path opacity="0.49" d="M70.2939 108.891C71.1025 108.521 72.002 108.311 72.9521 108.311C76.4592 108.311 79.3093 111.131 79.3093 114.6C79.3093 115.66 79.0465 116.65 78.5715 117.53C73.8415 117.25 70.3142 113.35 70.2939 108.891Z" fill="#B0322F"/>
<path d="M127.186 42.2164C127.186 44.1763 125.579 45.7661 123.598 45.7661C121.617 45.7661 120.01 44.1763 120.01 42.2164C120.01 40.2566 121.617 38.6667 123.598 38.6667C125.579 38.6667 127.186 40.2566 127.186 42.2164Z" fill="#A0625A"/>
<path d="M124.872 38.9067C124.104 39.5567 123.608 40.5266 123.608 41.6065C123.608 43.1264 124.579 44.4163 125.933 44.9162C126.701 44.2663 127.196 43.2964 127.196 42.2165C127.186 40.6966 126.226 39.4067 124.872 38.9067Z" fill="#EF7D6E"/>
<path d="M119.373 64.1746V60.4649L115.927 58.9451L112.43 61.8948L108.933 58.9451L105.486 60.4649V64.1746C105.486 67.9343 108.559 70.974 112.359 70.974H112.501C116.291 70.974 119.373 67.9243 119.373 64.1746Z" fill="#EBFFFE"/>
<path d="M97.6738 42.2164C97.6738 44.1763 99.2808 45.7661 101.262 45.7661C103.243 45.7661 104.85 44.1763 104.85 42.2164C104.85 40.2566 103.243 38.6667 101.262 38.6667C99.2808 38.6667 97.6738 40.2566 97.6738 42.2164Z" fill="#A0625A"/>
<path d="M99.9877 38.9067C100.756 39.5567 101.251 40.5266 101.251 41.6065C101.251 43.1264 100.281 44.4163 98.9264 44.9162C98.1583 44.2663 97.6631 43.2964 97.6631 42.2165C97.6732 40.6966 98.6334 39.4067 99.9877 38.9067Z" fill="#EF7D6E"/>
<path d="M112.48 66.5644H112.389C109.883 66.5644 107.861 64.5546 107.861 62.0848V50.2158H117.018V62.0848C117.008 64.5646 114.977 66.5644 112.48 66.5644Z" fill="#EF7D6E"/>
<path d="M107.852 50.2158V58.9451C113.077 58.4851 117.008 54.0555 117.008 54.0555V50.2258H107.852V50.2158Z" fill="#442020"/>
<path d="M112.43 24.3279C112.43 24.3279 100.827 26.1577 101.757 36.8568C102.677 47.5559 105.042 54.9952 112.43 55.7752C119.818 54.9952 122.183 47.5559 123.103 36.8568C124.033 26.1577 112.43 24.3279 112.43 24.3279Z" fill="#EF7D6E"/>
<path d="M117.746 26.3578C117.746 26.3578 112.915 33.3172 110.166 32.3473C107.902 31.1774 110.853 26.3578 110.853 26.3578C110.853 26.3578 105.142 35.557 101.696 36.047C101.848 37.9668 101.918 38.6768 101.918 38.6768L99.9879 38.9067C99.9879 38.9067 97.7845 33.4172 99.9879 29.7175C97.4611 31.1774 96.1978 28.0577 97.6633 25.7279C99.1288 23.3881 103.172 21.1483 106.618 21.2483C101.888 19.8884 103.566 16.2787 105.638 15.1088C107.71 13.9389 116.078 14.5288 120.899 21.4382C125.72 28.3576 126.276 33.8772 124.871 38.9067C122.789 38.7667 122.961 38.4168 122.961 38.4168C122.961 38.4168 124.841 31.3774 117.746 26.3578Z" fill="#863627"/>
<path d="M115.745 35.4969C115.745 35.4969 118.878 35.017 121.152 36.6168" stroke="#863627" stroke-width="1.169" stroke-miterlimit="10" stroke-linecap="round"/>
<path d="M109.114 35.4969C109.114 35.4969 105.981 35.017 103.707 36.6168" stroke="#863627" stroke-width="1.169" stroke-miterlimit="10" stroke-linecap="round"/>
<path d="M111.298 49.2458H113.117V43.4463" stroke="#511E18" stroke-width="0.5845" stroke-miterlimit="10" stroke-linecap="round"/>
<path opacity="0.39" d="M105.638 15.0988C105.638 15.0988 106.072 21.6582 113.117 21.0683C107.224 22.2382 105.011 24.6679 112.43 24.328C119.06 23.4081 119.06 23.4081 119.06 23.4081C119.06 23.4081 122.142 28.3976 122.941 33.8772C123.486 36.4569 122.961 38.4068 122.961 38.4068C122.961 38.4168 122.961 38.4268 122.961 38.4368C122.971 38.5268 123.163 38.7867 124.871 38.8967C126.286 33.8672 125.73 28.3376 120.899 21.4282C116.068 14.5188 107.7 13.9289 105.638 15.0988Z" fill="white"/>
<path opacity="0.59" d="M117.746 26.3579C117.746 26.3579 118.655 49.6459 114.956 55.1854C120.383 53.0956 122.294 46.2262 123.102 36.857C123.587 31.2775 120.656 28.1078 117.746 26.3579Z" fill="white"/>
<path d="M108.933 43.5864C108.933 44.1464 108.468 44.6063 107.902 44.6063C107.336 44.6063 106.871 44.1464 106.871 43.5864V42.9965C106.871 42.4365 107.336 41.9766 107.902 41.9766C108.468 41.9766 108.933 42.4365 108.933 42.9965V43.5864Z" fill="#863627"/>
<path d="M115.927 43.5864C115.927 44.1464 116.392 44.6063 116.958 44.6063C117.524 44.6063 117.989 44.1464 117.989 43.5864V42.9965C117.989 42.4365 117.524 41.9766 116.958 41.9766C116.392 41.9766 115.927 42.4365 115.927 42.9965V43.5864Z" fill="#863627"/>
<path d="M145.045 75.8936C144.135 72.8739 141.932 70.3941 139.021 69.1042L131.057 65.5945L136.899 104.351H125.639C118.342 104.351 112.43 110.201 112.43 117.42V117.55H145.752C151.655 117.55 155.889 111.93 154.212 106.331L145.045 75.8936Z" fill="#EF7D6E"/>
<path d="M145.045 75.8936C144.135 72.8739 141.932 70.3941 139.021 69.1042L131.057 65.5945L134.473 88.2425H148.774L145.045 75.8936Z" fill="#138261"/>
<path d="M136.889 104.361H145.065" stroke="#B0322F" stroke-width="1.0498" stroke-miterlimit="10" stroke-linecap="round"/>
<path opacity="0.49" d="M154.565 108.891C153.757 108.521 152.857 108.311 151.907 108.311C148.4 108.311 145.55 111.131 145.55 114.6C145.55 115.66 145.813 116.65 146.288 117.53C151.018 117.25 154.545 113.35 154.565 108.891Z" fill="#B0322F"/>
<path d="M112.43 84.3127H78.9258L84.0399 115.05H112.43H140.82L145.935 84.3127H112.43Z" fill="#FEFEFE"/>
<path d="M140.971 115.05H84.0391V117.53H140.971V115.05Z" fill="#809DBF"/>
<path d="M118.443 97.9316C118.443 100.131 115.745 101.911 112.43 101.911C109.104 101.911 106.416 100.131 106.416 97.9316C106.416 95.7318 109.115 93.9519 112.43 93.9519C115.755 93.9519 118.443 95.7318 118.443 97.9316Z" fill="#809DBF"/>
<path d="M112.43 140.238H133.503L155.152 145.618L133.796 165.276L116.978 157.757H112.43V140.238Z" fill="#0D263A"/>
<path d="M155.152 145.617L155.415 145.717C162.287 148.327 165.906 155.777 163.672 162.716L145.055 220.431L120.546 211.432L136.828 154.697C139.062 146.927 147.541 142.728 155.152 145.617Z" fill="#FFD069"/>
<path opacity="0.5" d="M155.425 145.717L155.162 145.617C154.353 145.307 153.535 145.097 152.726 144.948C148.683 147.167 145.944 151.427 145.944 156.317C145.944 163.496 151.827 169.315 159.083 169.315C159.963 169.315 160.812 169.225 161.64 169.065L163.692 162.716C165.916 155.777 162.287 148.327 155.425 145.717Z" fill="white"/>
<path d="M120.556 211.432C120.556 211.432 117.817 220.871 118.029 228.27C144.863 228.27 144.863 228.27 144.863 228.27L145.065 220.431L120.556 211.432Z" fill="#0D263A"/>
<path d="M151.462 228.27H122.213C122.213 228.27 125.073 219.851 137.606 219.851C150.138 219.851 151.462 228.27 151.462 228.27Z" fill="#138261"/>
<path d="M112.43 140.238H91.357L69.708 145.618L91.0639 165.276L107.882 157.757H112.43V140.238Z" fill="#0D263A"/>
<path d="M69.7082 145.618L69.4454 145.717C62.5727 148.327 58.9544 155.777 61.188 162.716L79.8049 220.431L104.314 211.432L88.032 154.687C85.7983 146.927 77.3187 142.728 69.7082 145.618Z" fill="#FFD069"/>
<path opacity="0.5" d="M69.4349 145.718L69.6977 145.618C70.5063 145.308 71.3249 145.098 72.1335 144.948C76.1763 147.168 78.9152 151.427 78.9152 156.317C78.9152 163.496 73.033 169.316 65.7762 169.316C64.8969 169.316 64.048 169.226 63.2192 169.066L61.1675 162.716C58.944 155.777 62.5724 148.327 69.4349 145.718Z" fill="white"/>
<path d="M104.304 211.432C104.304 211.432 107.043 220.871 106.831 228.27C79.9971 228.27 79.9971 228.27 79.9971 228.27L79.7949 220.431L104.304 211.432Z" fill="#0D263A"/>
<path d="M73.3965 228.27H102.646C102.646 228.27 99.7856 219.851 87.2531 219.851C74.7205 219.851 73.3965 228.27 73.3965 228.27Z" fill="#138261"/>
<path opacity="0.64" d="M133.512 124.809H91.3564V128.899H133.512V124.809Z" fill="#0D263A"/>
<path d="M145.935 82.123H78.9258V84.3129H145.935V82.123Z" fill="#B4D1ED"/>
<path opacity="0.59" d="M131.542 215.461L145.065 220.431L159.467 175.765C152.514 180.574 137.121 193.393 131.542 215.461Z" fill="white"/>
<path d="M93.318 215.461L79.7949 220.431L65.3926 175.755C72.3461 180.574 87.739 193.393 93.318 215.461Z" fill="#FFECC1"/>
<path d="M177.143 13.6187L168.239 9.98901" stroke="#105079" stroke-width="1.9286" stroke-miterlimit="10"/>
<path d="M157.425 9.61916L167.693 15.2187L171.898 7.66933C172.969 5.7395 172.262 3.3197 170.311 2.2598L167.087 0.509947C165.136 -0.549962 162.691 0.149978 161.619 2.07981L157.425 9.61916Z" fill="#66ADED"/>
<path d="M159.379 6.10299L157.429 9.60669L167.699 15.202L169.649 11.6983L159.379 6.10299Z" fill="#0074AF"/>
<path d="M157.425 9.61911L162.559 12.4189L167.693 15.2186C167.693 15.2186 172.141 19.2483 167.693 27.2476C158.334 22.148 157.485 21.6881 157.425 21.6481C157.364 21.6181 156.515 21.1481 147.156 16.0486C151.603 8.04924 157.425 9.61911 157.425 9.61911Z" fill="#66ADED"/>
<path opacity="0.32" d="M157.425 9.61909L162.306 12.2789C158.729 13.3388 155.323 17.1684 153.513 19.5082C152.028 18.6983 149.976 17.5884 147.156 16.0385C151.603 8.04923 157.425 9.61909 157.425 9.61909Z" fill="#FEFEFE"/>
<path d="M206.534 61.9045L188.716 113.51" stroke="#105079" stroke-width="1.9286" stroke-miterlimit="10"/>
<path d="M211.001 61.9045L193.183 113.51" stroke="#105079" stroke-width="1.9286" stroke-miterlimit="10"/>
<path d="M205.18 53.0454L179.337 17.9285" stroke="#105079" stroke-width="1.9286" stroke-miterlimit="10"/>
<path d="M209.445 51.7354L182.632 15.2986" stroke="#105079" stroke-width="1.9286" stroke-miterlimit="10"/>
<path d="M186.25 109.49H205.261C209.698 109.49 213.296 113.05 213.296 117.44V117.52H178.215V117.44C178.215 113.05 181.813 109.49 186.25 109.49Z" fill="#66ADED"/>
<path d="M212.205 65.4243H206.201C203.937 65.4243 202.098 63.6044 202.098 61.3646V55.4251C202.098 53.1853 203.937 51.3655 206.201 51.3655H212.205C214.469 51.3655 216.308 53.1853 216.308 55.4251V61.3646C216.298 63.6044 214.469 65.4243 212.205 65.4243Z" fill="#66ADED"/>
<path d="M206.535 55.1353C206.535 55.7752 206.009 56.2852 205.372 56.2852C204.725 56.2852 204.21 55.7652 204.21 55.1353C204.21 54.5053 204.736 53.9854 205.372 53.9854C206.009 53.9854 206.535 54.4953 206.535 55.1353Z" fill="#FEFEFE"/>
<path d="M214.024 55.1353C214.024 55.7752 213.498 56.2852 212.862 56.2852C212.215 56.2852 211.699 55.7652 211.699 55.1353C211.699 54.5053 212.225 53.9854 212.862 53.9854C213.498 53.9854 214.024 54.4953 214.024 55.1353Z" fill="#FEFEFE"/>
<path d="M206.535 61.9045C206.535 62.5445 206.009 63.0544 205.372 63.0544C204.725 63.0544 204.21 62.5345 204.21 61.9045C204.21 61.2746 204.736 60.7546 205.372 60.7546C206.009 60.7546 206.535 61.2746 206.535 61.9045Z" fill="#FEFEFE"/>
<path d="M214.024 61.9045C214.024 62.5445 213.498 63.0544 212.862 63.0544C212.215 63.0544 211.699 62.5345 211.699 61.9045C211.699 61.2746 212.225 60.7546 212.862 60.7546C213.498 60.7546 214.024 61.2746 214.024 61.9045Z" fill="#FEFEFE"/>
<path d="M185.916 14.8688L177.659 20.4483C176.426 21.2782 174.769 20.4083 174.769 18.9384V10.2692C174.769 8.98927 176.062 8.09935 177.275 8.55931L185.532 11.649C186.927 12.169 187.15 14.0288 185.916 14.8688Z" fill="#66ADED"/>
<path d="M178.144 17.4885C178.144 18.0284 177.699 18.4684 177.154 18.4684C176.608 18.4684 176.163 18.0284 176.163 17.4885C176.163 16.9485 176.608 16.5085 177.154 16.5085C177.699 16.5085 178.144 16.9485 178.144 17.4885Z" fill="#FEFEFE"/>
<path d="M184.623 13.6188C184.623 14.1588 184.178 14.5987 183.632 14.5987C183.086 14.5987 182.642 14.1588 182.642 13.6188C182.642 13.0789 183.086 12.6389 183.632 12.6389C184.178 12.6389 184.623 13.0789 184.623 13.6188Z" fill="#FEFEFE"/>
<path d="M178.144 10.9791C178.144 11.5191 177.699 11.959 177.154 11.959C176.608 11.959 176.163 11.5191 176.163 10.9791C176.163 10.4392 176.608 9.99919 177.154 9.99919C177.699 9.98919 178.144 10.4292 178.144 10.9791Z" fill="#FEFEFE"/>
<path d="M182.309 93.2319H162.327L164.278 118.26H180.358L182.309 93.2319Z" fill="#D5EAFF"/>
<path d="M184.421 91.9521H160.215V94.8919H184.421V91.9521Z" fill="#0074AF"/>
<path d="M182.309 89.3123H162.327V91.952H182.309V89.3123Z" fill="#66ADED"/>
<path d="M181.197 107.491L181.662 101.431H162.964L163.439 107.491H181.197Z" fill="#F0323C"/>
<path d="M221.372 124.809H3.62838C1.62721 124.809 0 123.199 0 121.22V121.15C0 119.17 1.62721 117.56 3.62838 117.56H221.372C223.373 117.56 225 119.17 225 121.15V121.22C225 123.199 223.373 124.809 221.372 124.809Z" fill="#105079"/>
<path d="M192.678 228.27H192.597C190.454 228.27 188.716 226.55 188.716 224.43V124.809H196.559V224.43C196.559 226.55 194.82 228.27 192.678 228.27Z" fill="#105079"/>
<path d="M196.559 124.809H188.716V140.238H196.559V124.809Z" fill="#0D263A"/>
<path d="M32.1809 228.27H32.2617C34.4044 228.27 36.1428 226.55 36.1428 224.43V124.809H28.2998V224.43C28.2998 226.55 30.0382 228.27 32.1809 228.27Z" fill="#105079"/>
<path d="M36.1428 124.809H28.2998V140.238H36.1428V124.809Z" fill="#0D263A"/>
<path d="M55.598 108.311H7.34766V109.49H14.2911V116.35H7.34766V117.53H55.598C58.145 117.53 60.2169 115.48 60.2169 112.96V112.87C60.2169 110.36 58.1551 108.311 55.598 108.311Z" fill="#4373B2"/>
<path d="M55.3756 116.36H33.0898V109.5H55.3756C57.2352 109.5 58.7412 111.02 58.7412 112.9V112.97C58.7412 114.84 57.2352 116.36 55.3756 116.36Z" fill="white"/>
<path d="M34.2927 112.93C34.2927 110.41 33.1001 109.5 33.1001 109.5H8.38867C8.38867 109.5 10.2686 112.84 8.38867 116.36H33.09C33.09 116.36 34.2927 115.44 34.2927 112.93Z" fill="#B4D1ED"/>
<path d="M62.057 91.2319H13.8066V92.4118H20.7501V99.2712H13.8066V100.451H62.057C64.604 100.451 66.6759 98.4013 66.6759 95.8815V95.7915C66.6759 93.2818 64.6141 91.2319 62.057 91.2319Z" fill="#0074AF"/>
<path d="M61.8447 99.2813H39.5488V92.4219H61.8346C63.6942 92.4219 65.2002 93.9417 65.2002 95.8216V95.8916C65.2002 97.7614 63.6942 99.2813 61.8447 99.2813Z" fill="white"/>
<path d="M40.7517 95.8516C40.7517 93.3318 39.559 92.4219 39.559 92.4219H14.8477C14.8477 92.4219 16.7275 95.7616 14.8477 99.2813H39.5489C39.5489 99.2813 40.7517 98.3614 40.7517 95.8516Z" fill="#B4D1ED"/>
<path d="M7.10542 100.461H48.1698V101.471H42.2572V107.311H48.1698V108.321H7.10542C4.93243 108.321 3.17383 106.581 3.17383 104.431V104.351C3.17383 102.201 4.93243 100.461 7.10542 100.461Z" fill="#F0323C"/>
<path d="M17.4345 100.461H58.4989V101.471H52.5863V107.311H58.4989V108.321H17.4345C15.2615 108.321 13.5029 106.581 13.5029 104.431V104.351C13.5029 102.201 15.2615 100.461 17.4345 100.461Z" fill="#BF376A"/>
<path d="M17.6161 107.311H36.5868V101.471H17.6161C16.0394 101.471 14.7559 102.761 14.7559 104.361V104.421C14.7559 106.011 16.0394 107.311 17.6161 107.311Z" fill="white"/>
<path d="M35.5664 104.391C35.5664 102.251 36.5872 101.471 36.5872 101.471H57.6096C57.6096 101.471 56.0127 104.311 57.6096 107.311H36.5872C36.5872 107.311 35.5664 106.531 35.5664 104.391Z" fill="#B4D1ED"/>
<path d="M21.6697 103.841H19.335V108.31H21.6697V103.841Z" fill="#4373B2"/>
<path d="M25.4086 103.781H15.7363V103.971H25.4086V103.781Z" fill="url(#paint0_linear_3_2)"/>
<path d="M9.15675 83.9727H47.1284V84.9026H41.6606V90.3021H47.1284V91.232H9.15675C7.15558 91.232 5.52837 89.6222 5.52837 87.6423V87.5723C5.51826 85.5825 7.14547 83.9727 9.15675 83.9727Z" fill="#163C7A"/>
<path d="M18.7075 83.9727H56.6792V84.9026H51.2113V90.3021H56.6792V91.232H18.7075C16.7064 91.232 15.0791 89.6222 15.0791 87.6423V87.5723C15.069 85.5825 16.6963 83.9727 18.7075 83.9727Z" fill="#66ADED"/>
<path d="M18.8795 90.3021H36.4149V84.9026H18.8795C17.414 84.9026 16.2314 86.1025 16.2314 87.5724V87.6223C16.2314 89.1022 17.414 90.3021 18.8795 90.3021Z" fill="white"/>
<path d="M35.4746 87.6024C35.4746 85.6225 36.4146 84.9026 36.4146 84.9026H55.8501C55.8501 84.9026 54.3745 87.5324 55.8501 90.3021H36.4146C36.4146 90.3021 35.4746 89.5822 35.4746 87.6024Z" fill="#B4D1ED"/>
<path d="M36.0518 63.4246C36.0518 63.4246 53.0213 22.5281 69.0912 33.6871C74.8219 38.1567 37.78 65.9144 37.78 65.9144L36.0518 63.4246Z" fill="#A4BDDA"/>
<path d="M63.1889 35.457C63.1889 35.457 43.44 52.1756 38.2754 60.0249" stroke="white" stroke-width="0.3565" stroke-miterlimit="10"/>
<path d="M49.1396 48.1159C49.1396 48.1159 50.5344 45.6661 50.3525 40.9065" stroke="white" stroke-width="0.3565" stroke-miterlimit="10"/>
<path d="M42.6718 62.1348L56.7103 33.8972C45.3602 41.0066 36.0518 63.4247 36.0518 63.4247L37.5779 65.6045L39.1849 64.8345C40.044 64.1946 41.2366 63.2647 42.6718 62.1348Z" fill="#7590AA"/>
<path d="M32.3018 65.9944C32.3018 65.9944 32.4635 0.840013 59.7218 6.40953C69.7074 9.0593 35.9402 68.3242 35.9402 68.3242L32.3018 65.9944Z" fill="#B4D1ED"/>
<path d="M53.7281 10.6191C53.7281 10.6191 37.4459 43.3863 34.7979 63.6746" stroke="white" stroke-width="0.3565" stroke-miterlimit="10"/>
<path d="M58.5499 16.2986C58.5499 16.2986 51.6367 18.9084 48.918 20.9782" stroke="white" stroke-width="0.3565" stroke-miterlimit="10"/>
<path d="M40.8115 22.8882C40.8115 22.8882 43.0957 29.2676 43.4899 33.9472" stroke="white" stroke-width="0.3565" stroke-miterlimit="10"/>
<path d="M46.6632 41.7864C46.6632 41.7864 42.2364 42.6763 39.4873 44.9161" stroke="white" stroke-width="0.3565" stroke-miterlimit="10"/>
<path d="M55.1943 42.4864C55.1943 42.4864 59.6414 40.9166 64.614 41.3465" stroke="white" stroke-width="0.3565" stroke-miterlimit="10"/>
<path d="M34.7879 62.8745C34.7879 62.8745 17.9903 39.8165 9.63186 49.1757C6.72107 52.8154 34.0805 64.6844 34.0805 64.6844L34.7879 62.8745Z" fill="#A4BDDA"/>
<path d="M13.584 49.4158C13.584 49.4158 28.4614 56.9451 32.8781 61.0848" stroke="white" stroke-width="0.2292" stroke-miterlimit="10"/>
<path d="M24.2871 55.2452C24.2871 55.2452 23.0439 53.9253 22.4375 50.9155" stroke="white" stroke-width="0.2292" stroke-miterlimit="10"/>
<path d="M30.4517 63.0545L17.3936 47.4758C25.57 50.2356 34.7774 62.8845 34.7774 62.8845L34.1508 64.4744L33.0289 64.2344C32.4124 63.9444 31.5129 63.5444 30.4517 63.0545Z" fill="#7590AA"/>
<path d="M37.517 63.9345C37.517 63.9345 27.5515 23.218 11.3502 30.7374C5.50838 33.8671 35.5966 65.9243 35.5966 65.9243L37.517 63.9345Z" fill="#B4D1ED"/>
<path d="M15.7363 32.4773C15.7363 32.4773 30.8765 50.5557 35.6065 62.8447" stroke="white" stroke-width="0.2292" stroke-miterlimit="10"/>
<path d="M13.584 36.7468C13.584 36.7468 18.3039 37.3568 20.3152 38.2467" stroke="white" stroke-width="0.2292" stroke-miterlimit="10"/>
<path d="M25.6694 38.2368C25.6694 38.2368 25.2091 42.5564 25.6694 45.5462" stroke="white" stroke-width="0.2292" stroke-miterlimit="10"/>
<path d="M24.873 50.9156C24.873 50.9156 27.7737 50.8156 29.8355 51.8155" stroke="white" stroke-width="0.2292" stroke-miterlimit="10"/>
<path d="M19.6481 52.6254C19.6481 52.6254 16.6363 52.3054 13.584 53.3053" stroke="white" stroke-width="0.2292" stroke-miterlimit="10"/>
<path d="M46.381 62.5647H23.3574V69.5541H46.381V62.5647Z" fill="#138261"/>
<path d="M42.9446 83.7728H26.8038L25.6719 69.4141H44.0664L42.9446 83.7728Z" fill="#138261"/>
<path d="M43.682 74.3038L44.056 69.5542H25.6816L26.0556 74.3038H43.682Z" fill="#0D263A"/>
<path d="M168.998 83.1927C168.998 83.1927 165.48 78.8631 168.381 73.4036C171.282 67.9441 169.281 64.1844 168.381 61.7146C172.798 68.164 172.687 70.6338 171.171 74.2835C169.655 77.9332 168.785 79.783 168.998 83.1927Z" fill="#66ADED"/>
<defs>
<linearGradient id="paint0_linear_3_2" x1="25.4062" y1="103.877" x2="15.7337" y2="103.877" gradientUnits="userSpaceOnUse">
<stop stop-color="white"/>
<stop offset="0.512" stop-color="#66ADED"/>
<stop offset="1" stop-color="white"/>
</linearGradient>
</defs>
</svg>
