<svg width="23" height="27" viewBox="0 0 23 27" fill="none" xmlns="http://www.w3.org/2000/svg">
<path opacity="0.8" d="M15.7606 8.91413L14.1498 7.30496L6.09602 15.3572C5.77883 15.6745 5.52724 16.0511 5.35562 16.4656C5.184 16.8802 5.09571 17.3244 5.09578 17.7731C5.09585 18.2217 5.18429 18.666 5.35605 19.0804C5.52781 19.4949 5.77952 19.8715 6.09681 20.1887C6.4141 20.5059 6.79076 20.7574 7.20529 20.9291C7.61981 21.1007 8.06408 21.189 8.51272 21.1889C8.96137 21.1888 9.4056 21.1004 9.82007 20.9286C10.2345 20.7569 10.6111 20.5052 10.9283 20.1879L20.5929 10.5249C21.6607 9.45689 22.2605 8.00845 22.2603 6.49822C22.2602 4.98799 21.6601 3.53967 20.5921 2.47188C19.5241 1.40409 18.0756 0.804295 16.5654 0.804443C15.0552 0.804592 13.6069 1.40467 12.5391 2.47267L2.39206 12.6181L2.36984 12.6387C-0.732656 15.7412 -0.732656 20.7687 2.36984 23.8696C5.47234 26.9705 10.4998 26.9705 13.6023 23.8696L13.623 23.8474L13.6245 23.849L20.5516 16.9235L18.9408 15.3143L12.0138 22.2382L11.9931 22.2588C10.9301 23.3198 9.48956 23.9157 7.98767 23.9157C6.48578 23.9157 5.04524 23.3198 3.98219 22.2588C3.45526 21.7308 3.03775 21.1039 2.75359 20.4141C2.46944 19.7243 2.32423 18.9852 2.32629 18.2392C2.32836 17.4932 2.47765 16.755 2.76562 16.0668C3.05359 15.3786 3.47456 14.754 4.00441 14.2288L4.00282 14.2273L14.1514 4.08185C15.4829 2.7488 17.6507 2.7488 18.9837 4.08185C20.3167 5.41489 20.3151 7.58109 18.9837 8.91254L9.31913 18.5755C9.10284 18.7745 8.81805 18.8822 8.52425 18.8761C8.23044 18.87 7.95034 18.7507 7.74244 18.543C7.53454 18.3353 7.41492 18.0553 7.40857 17.7615C7.40222 17.4677 7.50963 17.1828 7.70837 16.9663L15.7622 8.91254L15.7606 8.91413Z" fill="white"/>
</svg>
