<svg width="31" height="27" viewBox="0 0 31 27" fill="none" xmlns="http://www.w3.org/2000/svg">
<path opacity="0.8" d="M27.3232 4.7108H22.7115L21.6129 1.54386C21.537 1.32716 21.3979 1.13984 21.2146 1.0075C21.0313 0.875153 20.8127 0.80424 20.5888 0.804444H10.1854C9.72764 0.804444 9.31734 1.10091 9.16475 1.54386L8.0627 4.7108H3.45103C1.95224 4.7108 0.738281 5.95944 0.738281 7.50105V23.4055C0.738281 24.9471 1.95224 26.1957 3.45103 26.1957H27.3232C28.822 26.1957 30.0359 24.9471 30.0359 23.4055V7.50105C30.0359 5.95944 28.822 4.7108 27.3232 4.7108ZM27.5945 23.4055C27.5945 23.559 27.4724 23.6845 27.3232 23.6845H3.45103C3.30183 23.6845 3.17975 23.559 3.17975 23.4055V7.50105C3.17975 7.34759 3.30183 7.22203 3.45103 7.22203H9.7819L10.3617 5.55485L11.1383 3.31567H19.6326L20.4091 5.55485L20.9889 7.22203H27.3232C27.4724 7.22203 27.5945 7.34759 27.5945 7.50105V23.4055ZM15.3871 9.45423C12.3895 9.45423 9.96162 11.9515 9.96162 15.0347C9.96162 18.118 12.3895 20.6152 15.3871 20.6152C18.3847 20.6152 20.8126 18.118 20.8126 15.0347C20.8126 11.9515 18.3847 9.45423 15.3871 9.45423ZM15.3871 18.383C13.5899 18.383 12.1318 16.8833 12.1318 15.0347C12.1318 13.1862 13.5899 11.6864 15.3871 11.6864C17.1843 11.6864 18.6424 13.1862 18.6424 15.0347C18.6424 16.8833 17.1843 18.383 15.3871 18.383Z" fill="white"/>
</svg>
