<svg width="218" height="186" viewBox="0 0 218 186" fill="none" xmlns="http://www.w3.org/2000/svg">
<path d="M121.345 3.26042C117.542 1.12009 113.289 0 108.97 0C104.65 0 100.398 1.12009 96.5945 3.26042L10.9179 51.4679C4.19383 55.2517 0 62.5908 0 70.5749V135.203H217.94V70.5749C217.94 62.5908 213.746 55.2511 207.022 51.4679L121.345 3.26042Z" fill="url(#paint0_radial_9_1556)"/>
<path d="M181.473 146.481H36.4672V19.5743C36.4672 13.291 41.5608 8.19743 47.8441 8.19743H170.095C176.379 8.19743 181.472 13.291 181.472 19.5743L181.473 146.481Z" fill="url(#paint1_linear_9_1556)"/>
<path d="M211.546 79.6774C188.748 94.2344 116.418 129.318 116.418 129.318C114.098 130.643 111.535 131.308 108.97 131.316C106.405 131.308 103.842 130.643 101.521 129.318C101.521 129.318 29.192 94.2344 6.39383 79.6768C0.218583 75.7341 0.00531687 70.3156 0 69.7579V161.322C0 174.952 10.6178 186 23.7162 186H194.223C207.321 186 217.94 174.952 217.94 161.322V69.7579C217.934 70.3156 217.722 75.7341 211.546 79.6774Z" fill="url(#paint2_radial_9_1556)"/>
<path d="M110.836 115.099C119.236 115.099 126.046 108.289 126.046 99.8886C126.046 91.4881 119.236 84.6782 110.836 84.6782C102.436 84.6782 95.6257 91.4881 95.6257 99.8886C95.6257 108.289 102.436 115.099 110.836 115.099Z" fill="url(#paint3_radial_9_1556)"/>
<path d="M118.73 93.633C118.73 93.835 118.675 94.0188 118.567 94.1824L110.974 108.147C110.838 108.379 110.661 108.581 110.444 108.755C110.227 108.918 109.888 109 109.426 109C108.979 109 108.646 108.918 108.429 108.755C108.211 108.581 108.035 108.379 107.899 108.147L103.319 99.8082C103.225 99.6446 103.177 99.4615 103.177 99.2588C103.177 98.9504 103.34 98.6952 103.665 98.4926C103.991 98.3 104.364 98.2037 104.785 98.2037C105.151 98.2037 105.443 98.2758 105.66 98.4205C105.877 98.5558 106.06 98.7242 106.21 98.9262L109.426 105.17L115.696 93.3004C115.831 93.0978 116.015 92.9294 116.245 92.7947C116.462 92.65 116.754 92.5779 117.121 92.5779C117.528 92.5779 117.894 92.6742 118.22 92.8668C118.56 93.0688 118.73 93.3246 118.73 93.633Z" fill="white"/>
<path d="M159.991 36.4442H59.6092C58.0998 36.4442 56.8769 35.2207 56.8769 33.7119C56.8769 32.2025 58.1004 30.9796 59.6092 30.9796H159.991C161.5 30.9796 162.723 32.2031 162.723 33.7119C162.723 35.2207 161.5 36.4442 159.991 36.4442Z" fill="#D4D4D4"/>
<path d="M159.991 52.6039H59.6092C58.0998 52.6039 56.8769 51.3804 56.8769 49.8716C56.8769 48.3622 58.1004 47.1393 59.6092 47.1393H159.991C161.5 47.1393 162.723 48.3628 162.723 49.8716C162.723 51.3804 161.5 52.6039 159.991 52.6039Z" fill="#D4D4D4"/>
<path d="M159.991 68.7636H59.6092C58.0998 68.7636 56.8769 67.5402 56.8769 66.0314C56.8769 64.522 58.1004 63.2991 59.6092 63.2991H159.991C161.5 63.2991 162.723 64.5226 162.723 66.0314C162.723 67.5408 161.5 68.7636 159.991 68.7636Z" fill="#D4D4D4"/>
<path d="M145.462 84.1696C160.453 84.1696 172.605 72.0171 172.605 57.0264C172.605 42.0356 160.453 29.8832 145.462 29.8832C130.471 29.8832 118.319 42.0356 118.319 57.0264C118.319 72.0171 130.471 84.1696 145.462 84.1696Z" fill="url(#paint4_linear_9_1556)"/>
<path d="M173.06 88.3882L169.869 90.922L161.682 80.6108L164.873 78.077L173.06 88.3882Z" fill="url(#paint5_linear_9_1556)"/>
<path d="M210.337 138.733C208.607 140.107 206.091 139.818 204.718 138.088L165.801 89.0753C165.394 88.5619 165.479 87.8158 165.993 87.4081L170.399 83.9096C170.912 83.502 171.659 83.5877 172.066 84.1011L210.983 133.114C212.356 134.844 212.067 137.36 210.337 138.733Z" fill="white"/>
<path d="M145.299 86.0878C144.18 86.0878 143.057 86.0234 141.933 85.8946C138.168 85.4621 134.58 84.3267 131.268 82.519C127.837 80.6468 124.856 78.1331 122.407 75.0488C119.957 71.9638 118.185 68.4907 117.139 64.7252C116.13 61.089 115.837 57.3371 116.269 53.5722C116.701 49.8072 117.837 46.2189 119.644 42.9065C121.516 39.476 124.03 36.495 127.114 34.0457C130.199 31.5964 133.673 29.8241 137.438 28.7784C141.074 27.7682 144.827 27.4758 148.591 27.9076C152.356 28.3401 155.944 29.4755 159.257 31.2833C162.687 33.1554 165.668 35.6691 168.118 38.7535C170.567 41.8384 172.339 45.3115 173.385 49.077C174.395 52.7132 174.688 56.4657 174.256 60.2301C173.823 63.995 172.688 67.5833 170.88 70.8957C169.008 74.3262 166.495 77.3073 163.41 79.7566C160.325 82.2059 156.852 83.9781 153.086 85.0238C150.537 85.7321 147.928 86.0878 145.299 86.0878ZM129.653 37.2417C124.402 41.4113 121.089 47.3757 120.324 54.0371C119.559 60.6985 121.434 67.2584 125.604 72.5097C129.773 77.7609 135.738 81.074 142.399 81.8384C143.373 81.9501 144.346 82.0056 145.312 82.0056C150.952 82.0056 156.389 80.1187 160.872 76.5588C166.123 72.3892 169.436 66.4248 170.201 59.7634C170.966 53.1019 169.091 46.5421 164.921 41.2908C160.751 36.0395 154.787 32.7265 148.126 31.9621C141.465 31.197 134.904 33.0721 129.653 37.2417Z" fill="url(#paint6_linear_9_1556)"/>
<defs>
<radialGradient id="paint0_radial_9_1556" cx="0" cy="0" r="1" gradientUnits="userSpaceOnUse" gradientTransform="translate(98.8059 290.947) scale(233.921 321.806)">
<stop stop-color="#855F00"/>
<stop offset="1" stop-color="#F2CB30"/>
</radialGradient>
<linearGradient id="paint1_linear_9_1556" x1="107.112" y1="-175.865" x2="109.391" y2="247.684" gradientUnits="userSpaceOnUse">
<stop stop-color="#F4F4F4"/>
<stop offset="1" stop-color="#F5F5F5"/>
</linearGradient>
<radialGradient id="paint2_radial_9_1556" cx="0" cy="0" r="1" gradientUnits="userSpaceOnUse" gradientTransform="translate(111.532 410.05) scale(273.327 437.352)">
<stop stop-color="#AB7A00"/>
<stop offset="1" stop-color="#F2CB30"/>
</radialGradient>
<radialGradient id="paint3_radial_9_1556" cx="0" cy="0" r="1" gradientUnits="userSpaceOnUse" gradientTransform="translate(-89.3222 310.306) scale(470.079 401.187)">
<stop stop-color="#F7BA34"/>
<stop offset="1" stop-color="#FFD069"/>
</radialGradient>
<linearGradient id="paint4_linear_9_1556" x1="-39.2942" y1="100.254" x2="222.817" y2="82.6504" gradientUnits="userSpaceOnUse">
<stop stop-color="#A3DEE5"/>
<stop offset="0.5674" stop-color="#A5E2E8"/>
<stop offset="0.8652" stop-color="#A4E1E7"/>
<stop offset="0.9944" stop-color="#A3E1E7"/>
</linearGradient>
<linearGradient id="paint5_linear_9_1556" x1="135.669" y1="76.9756" x2="89.6803" y2="125.272" gradientUnits="userSpaceOnUse">
<stop stop-color="#2A2F40"/>
<stop offset="0.1759" stop-color="#333849"/>
<stop offset="0.4674" stop-color="#4D5160"/>
<stop offset="0.5674" stop-color="#575B69"/>
<stop offset="0.8652" stop-color="#464C5E"/>
<stop offset="0.9944" stop-color="#3B4357"/>
</linearGradient>
<linearGradient id="paint6_linear_9_1556" x1="166.633" y1="37.0211" x2="123.894" y2="76.7801" gradientUnits="userSpaceOnUse">
<stop stop-color="#32384C"/>
<stop offset="0.1556" stop-color="#3B4155"/>
<stop offset="0.4135" stop-color="#555B6C"/>
<stop offset="0.5674" stop-color="#676D7D"/>
<stop offset="0.8652" stop-color="#545A70"/>
<stop offset="0.9944" stop-color="#475067"/>
</linearGradient>
</defs>
</svg>
