<svg width="238" height="252" viewBox="0 0 238 252" fill="none" xmlns="http://www.w3.org/2000/svg">
<path d="M226.761 110.154C226.756 110.148 226.756 110.108 226.75 110.022C226.75 109.924 226.744 109.798 226.738 109.643C226.733 109.293 226.727 108.811 226.716 108.191C226.704 106.917 226.687 105.081 226.67 102.774L226.756 102.86C220.384 102.872 210.249 102.895 198.853 102.918C198.916 102.854 198.709 103.061 198.996 102.774V102.78V102.786V102.803V102.831V102.889V103.009V103.245V103.721C198.996 104.037 198.996 104.352 198.996 104.662C198.996 105.287 198.996 105.907 198.996 106.527C198.996 107.761 198.996 108.972 198.996 110.159L198.858 110.022C206.802 110.045 213.759 110.068 218.743 110.085C221.227 110.102 223.223 110.114 224.611 110.125C225.287 110.131 225.821 110.136 226.199 110.142C226.371 110.148 226.509 110.148 226.612 110.154C226.71 110.148 226.756 110.154 226.761 110.154C226.767 110.159 226.721 110.159 226.629 110.165C226.526 110.165 226.394 110.171 226.234 110.177C225.861 110.182 225.339 110.188 224.679 110.194C223.297 110.205 221.313 110.217 218.841 110.234C213.828 110.251 206.842 110.274 198.858 110.297H198.721V110.159C198.721 108.972 198.721 107.761 198.721 106.527C198.721 105.913 198.721 105.287 198.721 104.662C198.721 104.346 198.721 104.037 198.721 103.721V103.245V103.009V102.889V102.831V102.803V102.786V102.78V102.774C199.007 102.487 198.801 102.694 198.864 102.631C210.26 102.654 220.395 102.671 226.767 102.688H226.853V102.774C226.83 105.11 226.819 106.957 226.807 108.243C226.796 108.857 226.79 109.333 226.784 109.677C226.779 109.827 226.779 109.947 226.773 110.039C226.767 110.119 226.761 110.159 226.761 110.154Z" fill="#E0E0E0"/>
<path d="M120.333 38.3782H92.4297V45.7635H120.333V38.3782Z" fill="#F5F5F5"/>
<path d="M108.539 53.5448C108.533 53.539 108.533 53.4989 108.527 53.4128C108.527 53.3153 108.522 53.189 108.516 53.0341C108.51 52.684 108.504 52.202 108.493 51.5822C108.481 50.3083 108.464 48.472 108.447 46.1652L108.533 46.2513C102.161 46.2627 92.0263 46.2857 80.63 46.3086C80.6931 46.2455 80.4866 46.4521 80.7733 46.1652V46.1709V46.1767V46.1939V46.2226V46.28V46.4005V46.6357V47.112C80.7733 47.4276 80.7733 47.7432 80.7733 48.0531C80.7733 48.6786 80.7733 49.2984 80.7733 49.9181C80.7733 51.1519 80.7733 52.3627 80.7733 53.5505L80.6357 53.4128C88.5793 53.4358 95.5364 53.4587 100.521 53.4759C103.004 53.4931 105 53.5046 106.388 53.5161C107.065 53.5218 107.598 53.5276 107.977 53.5333C108.149 53.5391 108.286 53.539 108.39 53.5448C108.487 53.539 108.533 53.539 108.539 53.5448C108.544 53.5505 108.499 53.5505 108.407 53.5563C108.304 53.5563 108.172 53.562 108.011 53.5677C107.638 53.5735 107.116 53.5792 106.457 53.585C105.075 53.5964 103.09 53.6079 100.618 53.6251C95.6053 53.6423 88.6195 53.6653 80.6357 53.6882H80.498V53.5505C80.498 52.3627 80.498 51.1519 80.498 49.9181C80.498 49.3041 80.498 48.6786 80.498 48.0531C80.498 47.7375 80.498 47.4276 80.498 47.112V46.6357V46.4005V46.28V46.2226V46.1939V46.1767V46.1709V46.1652C80.7848 45.8783 80.5783 46.0848 80.6414 46.0217C92.0378 46.0447 102.172 46.0619 108.544 46.0791H108.63V46.1652C108.608 48.5007 108.596 50.3485 108.585 51.6339C108.573 52.2479 108.567 52.7242 108.562 53.0685C108.556 53.2177 108.556 53.3382 108.55 53.43C108.544 53.5046 108.539 53.5448 108.539 53.5448Z" fill="#E0E0E0"/>
<path d="M37.738 26.8091C37.7322 26.8033 37.7322 26.7632 37.7265 26.6771C37.7265 26.5795 37.7208 26.4533 37.715 26.2984C37.7093 25.9483 37.7035 25.4663 37.6921 24.8465C37.6806 23.5726 37.6634 21.7363 37.6462 19.4295L37.738 19.5098C31.3659 19.5213 21.2313 19.5442 9.83492 19.5672C9.89801 19.5041 9.69153 19.7106 9.97257 19.4237V19.4295V19.4352V19.4524V19.4811V19.5385V19.659V19.8943V20.3706C9.97257 20.6862 9.97257 21.0018 9.97257 21.3117C9.97257 21.9372 9.97257 22.5569 9.97257 23.1767C9.97257 24.4104 9.97257 25.6212 9.97257 26.8091L9.83492 26.6713C17.7785 26.6943 24.7357 26.7173 29.7198 26.7345C32.2032 26.7517 34.1992 26.7632 35.5872 26.7746C36.2639 26.7804 36.7973 26.7861 37.1759 26.7919C37.3479 26.7976 37.4856 26.7976 37.5888 26.8033C37.6806 26.8033 37.7322 26.8033 37.738 26.8091C37.7437 26.8148 37.6978 26.8148 37.606 26.8205C37.5028 26.8205 37.3709 26.8263 37.2103 26.832C36.8375 26.8378 36.3156 26.8435 35.656 26.8492C34.2737 26.8607 32.2893 26.8722 29.8173 26.8894C24.8045 26.9066 17.8187 26.9296 9.83492 26.9525H9.69727V26.8148C9.69727 25.627 9.69727 24.4162 9.69727 23.1824C9.69727 22.5684 9.69727 21.9429 9.69727 21.3174C9.69727 21.0018 9.69727 20.6919 9.69727 20.3763V19.9V19.6647V19.5442V19.4868V19.4524V19.4352V19.4295V19.4237C9.98404 19.1368 9.77756 19.3434 9.84065 19.2803C21.237 19.3032 31.3716 19.3204 37.7437 19.3376H37.8297V19.4237C37.8068 21.7593 37.7953 23.607 37.7838 24.8924C37.7724 25.5065 37.7666 25.9827 37.7609 26.327C37.7552 26.4762 37.7552 26.5967 37.7494 26.6886C37.7437 26.7746 37.738 26.8091 37.738 26.8091Z" fill="#E0E0E0"/>
<path d="M204.121 16.2045C204.115 16.1987 204.115 16.1585 204.109 16.0725C204.109 15.9749 204.104 15.8487 204.098 15.6937C204.092 15.3437 204.086 14.8617 204.075 14.2419C204.063 12.968 204.046 11.1317 204.029 8.82485L204.115 8.91092C197.743 8.9224 187.608 8.94535 176.212 8.96831C176.275 8.90518 176.069 9.11177 176.35 8.82485V8.83059V8.83632V8.85354V8.88223V8.93962V9.06012V9.2954V9.77169C176.35 10.0873 176.35 10.4029 176.35 10.7128C176.35 11.3383 176.35 11.958 176.35 12.5778C176.35 13.8115 176.35 15.0223 176.35 16.2102L176.212 16.0725C184.156 16.0954 191.113 16.1184 196.097 16.1356C198.58 16.1528 200.576 16.1643 201.964 16.1758C202.641 16.1815 203.174 16.1872 203.553 16.193C203.725 16.1987 203.863 16.1987 203.966 16.2045C204.069 16.1987 204.121 16.1987 204.121 16.2045C204.126 16.2102 204.081 16.2102 203.989 16.2159C203.886 16.2159 203.754 16.2217 203.593 16.2274C203.22 16.2331 202.698 16.2389 202.039 16.2446C200.657 16.2561 198.672 16.2676 196.2 16.2848C191.187 16.302 184.201 16.325 176.218 16.3479H176.08V16.2102C176.08 15.0223 176.08 13.8115 176.08 12.5778C176.08 11.9638 176.08 11.3383 176.08 10.7128C176.08 10.3972 176.08 10.0873 176.08 9.77169V9.2954V9.06012V8.93962V8.88223V8.85354V8.83632V8.83059V8.82485C176.367 8.53793 176.16 8.74451 176.223 8.68139C187.62 8.70434 197.754 8.72156 204.126 8.73877H204.213V8.82485C204.19 11.1604 204.178 13.0082 204.167 14.2936C204.155 14.9076 204.149 15.3839 204.144 15.7282C204.138 15.8774 204.138 15.9979 204.132 16.0897C204.127 16.1643 204.126 16.2045 204.121 16.2045Z" fill="#E0E0E0"/>
<path d="M207.908 8.81388C207.902 8.80815 207.902 8.76224 207.897 8.67616C207.891 8.57287 207.891 8.44089 207.885 8.28595C207.879 7.92443 207.868 7.43092 207.862 6.80544C207.851 5.50855 207.828 3.68374 207.805 1.43428L207.908 1.53757C203.566 1.54904 197.653 1.56052 191.143 1.57774C191.017 1.70398 191.315 1.40558 191.287 1.43428V1.44001V1.45723V1.49166V1.54904V1.66955V1.91057V2.39259C191.287 2.71394 191.287 3.0353 191.287 3.35091C191.287 3.98787 191.287 4.61336 191.287 5.23311C191.287 6.46687 191.281 7.6662 191.281 8.81388L191.143 8.67616C195.984 8.70485 200.148 8.72207 203.136 8.73928C204.61 8.7565 205.792 8.76798 206.629 8.77945C207.019 8.78519 207.335 8.79093 207.57 8.79667C207.788 8.80815 207.902 8.80815 207.908 8.81388C207.914 8.81962 207.811 8.82536 207.604 8.8311C207.375 8.83684 207.071 8.84258 206.692 8.84831C205.861 8.85979 204.691 8.87127 203.228 8.88848C200.217 8.9057 196.019 8.92865 191.143 8.95161H191.006V8.81388C191.006 7.6662 191 6.46687 191 5.23311C191 4.61336 191 3.98787 191 3.35091C191 3.0353 191 2.71394 191 2.39259V1.91057V1.66955V1.54904V1.49166V1.45723V1.44575V1.43428C190.971 1.46297 191.27 1.16457 191.143 1.29082C197.653 1.30803 203.566 1.31951 207.908 1.33098H208.011V1.43428C207.988 3.70669 207.971 5.5602 207.954 6.86856C207.943 7.48257 207.937 7.97034 207.931 8.32612C207.92 8.65321 207.914 8.82536 207.908 8.81388Z" fill="#E0E0E0"/>
<path d="M28.0464 192.311C28.0464 192.305 28.0407 192.265 28.0407 192.179C28.0407 192.081 28.035 191.955 28.0292 191.8C28.0235 191.45 28.0177 190.968 28.0063 190.348C27.9948 189.074 27.9776 187.238 27.9604 184.931L28.0464 185.017C21.6743 185.029 11.5398 185.052 0.143387 185.075C0.206477 185.011 0 185.218 0.286773 184.931V184.937V184.943V184.96V184.988V185.046V185.166V185.402V185.878C0.286773 186.194 0.286773 186.509 0.286773 186.819C0.286773 187.444 0.286773 188.064 0.286773 188.684C0.286773 189.918 0.286773 191.129 0.286773 192.316L0.149122 192.179C8.09274 192.202 15.0499 192.225 20.034 192.242C22.5174 192.259 24.5134 192.27 25.9014 192.282C26.5781 192.288 27.1115 192.293 27.4901 192.299C27.6621 192.305 27.7998 192.305 27.903 192.311C27.9948 192.305 28.0464 192.311 28.0464 192.311C28.0522 192.316 28.0063 192.316 27.9145 192.322C27.8113 192.322 27.6794 192.328 27.5188 192.334C27.146 192.339 26.624 192.345 25.9587 192.351C24.5765 192.362 22.592 192.374 20.12 192.391C15.1072 192.408 8.12142 192.431 0.137651 192.454H0V192.316C0 191.129 0 189.918 0 188.684C0 188.07 0 187.444 0 186.819C0 186.503 0 186.194 0 185.878V185.402V185.166V185.046V184.988V184.96V184.943V184.937V184.931C0.286773 184.644 0.0802965 184.851 0.143387 184.788C11.5398 184.811 21.6743 184.828 28.0464 184.845H28.1325V184.931C28.1095 187.267 28.098 189.114 28.0866 190.4C28.0751 191.014 28.0694 191.49 28.0636 191.834C28.0579 191.984 28.0579 192.104 28.0522 192.196C28.0522 192.276 28.0522 192.316 28.0464 192.311Z" fill="#E0E0E0"/>
<path d="M31.8359 184.926C31.8302 184.92 31.8302 184.874 31.8244 184.788C31.8187 184.685 31.8187 184.553 31.8129 184.398C31.8072 184.036 31.7957 183.543 31.79 182.917C31.7785 181.62 31.7556 179.795 31.7326 177.546L31.8359 177.649C27.4941 177.661 21.5809 177.672 15.0711 177.689C14.9449 177.816 15.2432 177.517 15.2145 177.546V177.552V177.557V177.575V177.603V177.666V177.787V178.028V178.51C15.2145 178.831 15.2145 179.153 15.2145 179.468C15.2145 180.105 15.2145 180.731 15.2145 181.351C15.2145 182.584 15.2088 183.784 15.2088 184.931L15.0711 184.794C19.9119 184.822 24.0758 184.84 27.064 184.857C28.538 184.874 29.7195 184.885 30.5569 184.897C30.9469 184.903 31.2623 184.908 31.4975 184.914C31.7154 184.914 31.8302 184.92 31.8359 184.926C31.8416 184.931 31.7384 184.937 31.5319 184.943C31.3025 184.949 30.9985 184.954 30.62 184.96C29.7883 184.971 28.6183 184.983 27.1557 185C24.1446 185.017 19.9463 185.04 15.0711 185.063H14.9335V184.926C14.9335 183.778 14.9277 182.579 14.9277 181.345C14.9277 180.725 14.9277 180.1 14.9277 179.463C14.9277 179.147 14.9277 178.826 14.9277 178.504V178.022V177.781V177.661V177.598V177.569V177.552V177.546V177.54C14.8991 177.569 15.1973 177.271 15.0711 177.397C21.5809 177.414 27.4941 177.425 31.8359 177.437H31.9391V177.54C31.9162 179.813 31.899 181.666 31.8818 182.974C31.8703 183.589 31.8646 184.076 31.8588 184.432C31.8474 184.765 31.8416 184.931 31.8359 184.926Z" fill="#E0E0E0"/>
<path d="M115.912 131.581C115.906 131.575 115.906 131.535 115.906 131.449C115.906 131.351 115.9 131.225 115.895 131.07C115.889 130.72 115.883 130.238 115.872 129.618C115.86 128.344 115.843 126.508 115.826 124.201L115.912 124.287C109.54 124.299 99.4051 124.322 88.0087 124.345C88.0718 124.282 87.8654 124.488 88.1464 124.201V124.207V124.213V124.23V124.259V124.316V124.437V124.672V125.148C88.1464 125.464 88.1464 125.779 88.1464 126.089C88.1464 126.715 88.1464 127.334 88.1464 127.954C88.1464 129.188 88.1464 130.399 88.1464 131.587L88.0087 131.449C95.9524 131.472 102.909 131.495 107.894 131.512C110.377 131.529 112.373 131.541 113.761 131.552C114.438 131.558 114.971 131.564 115.35 131.569C115.522 131.575 115.659 131.575 115.763 131.581C115.86 131.575 115.906 131.575 115.912 131.581C115.918 131.587 115.872 131.587 115.78 131.592C115.677 131.592 115.545 131.598 115.384 131.604C115.011 131.61 114.489 131.615 113.83 131.621C112.448 131.633 110.463 131.644 107.991 131.661C102.978 131.678 95.9925 131.701 88.0087 131.724H87.8711V131.587C87.8711 130.399 87.8711 129.188 87.8711 127.954C87.8711 127.34 87.8711 126.715 87.8711 126.089C87.8711 125.774 87.8711 125.464 87.8711 125.148V124.672V124.437V124.316V124.259V124.23V124.213V124.207V124.201C88.1579 123.914 87.9514 124.121 88.0145 124.058C99.4108 124.081 109.545 124.098 115.918 124.115H116.004V124.201C115.981 126.537 115.969 128.385 115.958 129.67C115.946 130.284 115.94 130.76 115.935 131.105C115.929 131.254 115.929 131.374 115.923 131.466C115.918 131.546 115.912 131.587 115.912 131.581Z" fill="#E0E0E0"/>
<path d="M119.697 124.196C119.691 124.19 119.691 124.144 119.686 124.058C119.68 123.955 119.68 123.823 119.674 123.668C119.669 123.306 119.657 122.813 119.651 122.187C119.64 120.89 119.617 119.065 119.594 116.816L119.697 116.919C115.355 116.931 109.442 116.942 102.932 116.959C102.806 117.086 103.105 116.787 103.076 116.816V116.822V116.827V116.845V116.873V116.936V117.057V117.298V117.78C103.076 118.101 103.076 118.423 103.076 118.738C103.076 119.375 103.076 120.001 103.076 120.621C103.076 121.854 103.07 123.054 103.07 124.201L102.932 124.064C107.773 124.092 111.937 124.11 114.925 124.127C116.399 124.144 117.581 124.155 118.418 124.167C118.808 124.173 119.124 124.178 119.359 124.184C119.577 124.184 119.691 124.19 119.697 124.196C119.703 124.201 119.6 124.207 119.393 124.213C119.164 124.219 118.86 124.224 118.481 124.23C117.65 124.242 116.48 124.253 115.017 124.27C112.006 124.287 107.808 124.31 102.932 124.333H102.795V124.196C102.795 123.048 102.789 121.849 102.789 120.615C102.789 119.995 102.789 119.37 102.789 118.733C102.789 118.417 102.789 118.096 102.789 117.774V117.292V117.051V116.931V116.868V116.839V116.822V116.816V116.81C102.76 116.839 103.059 116.541 102.932 116.667C109.442 116.684 115.355 116.695 119.697 116.707H119.8V116.81C119.778 119.083 119.76 120.936 119.743 122.245C119.732 122.859 119.726 123.346 119.72 123.702C119.714 124.035 119.709 124.201 119.697 124.196Z" fill="#E0E0E0"/>
<path d="M12.5976 220.187L2.29102 234.195L19.6465 247.118C20.7764 245.385 14.2781 235.365 14.2781 235.365L21.2525 226.66L12.5976 220.187Z" fill="#455A64"/>
<path d="M9.45043 230.621C9.04895 230.46 8.53276 230.667 8.36069 231.063C8.18863 231.458 8.38937 231.986 8.79085 232.147C9.19234 232.313 9.8175 232.084 9.94368 231.671C10.0699 231.258 9.80029 230.655 9.37013 230.592" fill="white"/>
<path d="M2.24219 234.226L3.33766 232.723L19.5518 245.783C19.5518 245.783 20.068 246.696 19.5748 247.172L2.24219 234.226Z" fill="#263238"/>
<path d="M14.614 235.487C14.5509 235.567 14.0978 235.292 13.4784 235.257C12.859 235.206 12.3714 235.412 12.3198 235.321C12.2567 235.246 12.7557 234.833 13.5071 234.89C14.2527 234.942 14.6886 235.424 14.614 235.487Z" fill="#263238"/>
<path d="M15.8711 237.599C15.8309 237.697 15.3549 237.565 14.7986 237.708C14.2422 237.835 13.8809 238.168 13.7949 238.104C13.7031 238.058 14.0185 237.519 14.7068 237.353C15.4008 237.181 15.9284 237.513 15.8711 237.599Z" fill="#263238"/>
<path d="M15.2733 240.548C15.1815 240.507 15.3823 239.997 15.9443 239.693C16.5064 239.388 17.0398 239.503 17.0226 239.601C17.0169 239.704 16.5752 239.761 16.1164 240.02C15.6518 240.261 15.3651 240.599 15.2733 240.548Z" fill="#263238"/>
<path d="M15.9672 233.329C15.8755 233.381 15.5715 232.973 15.0668 232.652C14.5678 232.319 14.0803 232.199 14.086 232.095C14.0803 231.998 14.6825 231.952 15.2675 232.342C15.8582 232.727 16.0533 233.295 15.9672 233.329Z" fill="#263238"/>
<path d="M54.549 161.571C54.8645 163.327 55.352 178.264 55.6674 186.143C55.9829 194.022 55.1971 197.901 54.2966 199.663C53.3962 201.424 19.4365 226.467 16.8498 232.463L8.26953 225.526C8.26953 225.526 20.8646 202.859 26.2674 198.744C31.6702 194.63 41.9941 190.843 41.9941 190.843L39.0575 147.695L53.161 146.927L54.549 161.571Z" fill="#263238"/>
<path d="M23.0007 234.035L22.8516 251.434L44.4857 251.732C44.3882 249.661 33.2557 245.357 33.2557 245.357L33.8063 234.213L23.0007 234.035Z" fill="#455A64"/>
<path d="M26.5637 244.323C26.145 244.432 25.8468 244.897 25.9385 245.322C26.0303 245.746 26.5006 246.05 26.925 245.947C27.3495 245.844 27.7165 245.299 27.5789 244.886C27.4412 244.472 26.8677 244.145 26.4834 244.346" fill="white"/>
<path d="M22.8398 251.464L22.8456 249.599L43.6366 250.678C43.6366 250.678 44.5887 251.114 44.4683 251.791L22.8398 251.464Z" fill="#263238"/>
<path d="M33.5849 245.247C33.5791 245.351 33.0515 245.391 32.5238 245.724C31.9904 246.045 31.7151 246.498 31.6176 246.452C31.5201 246.429 31.6864 245.798 32.3288 245.408C32.9712 245.018 33.6078 245.15 33.5849 245.247Z" fill="#263238"/>
<path d="M35.8439 246.218C35.8669 246.322 35.408 246.494 35.041 246.936C34.6624 247.366 34.5649 247.848 34.4617 247.842C34.3642 247.86 34.2954 247.24 34.7599 246.695C35.2245 246.155 35.8439 246.115 35.8439 246.218Z" fill="#263238"/>
<path d="M37.1073 248.955C37.0098 248.978 36.8722 248.444 37.1532 247.871C37.4285 247.291 37.9275 247.073 37.9734 247.159C38.0307 247.245 37.7096 247.555 37.4859 248.031C37.245 248.496 37.2106 248.944 37.1073 248.955Z" fill="#263238"/>
<path d="M33.4212 242.693C33.3753 242.791 32.8936 242.636 32.2971 242.67C31.7006 242.693 31.2303 242.883 31.1787 242.791C31.1213 242.716 31.5801 242.326 32.2799 242.303C32.9853 242.269 33.4728 242.613 33.4212 242.693Z" fill="#263238"/>
<path d="M56.1114 145.142C56.1114 146.163 57.7575 171.871 49.355 190.458C49.355 190.458 46.4471 196.277 45.9367 198.819C45.4262 201.367 34.5346 243.521 34.5346 243.521L21.9739 243.062C21.9739 243.062 19.9608 221.939 21.9969 209.716C24.0329 197.493 27.7495 198.917 27.7495 191.026C27.7495 183.136 25.874 166.759 25.874 166.759C25.874 166.759 23.1325 162.283 22.1976 153.618C21.4405 146.576 24.7499 139.03 24.7499 139.03L28.0306 133.229L55.7386 131.777L56.1114 145.142Z" fill="#263238"/>
<path d="M56.1125 145.142C56.1125 145.142 56.1182 144.844 56.1067 144.27C56.0953 143.685 56.0781 142.824 56.0494 141.699C55.992 139.432 55.9117 136.093 55.8028 131.777V131.708L55.7339 131.714C48.9259 132.059 39.4682 132.541 28.0259 133.126L27.9628 133.132L27.9341 133.183C26.9132 134.985 25.8005 136.953 24.6477 138.985L24.642 138.991V138.996C23.8161 140.993 23.1508 143.122 22.669 145.354C22.1757 147.587 21.9004 149.939 21.975 152.35C22.1299 154.76 22.5199 157.187 23.1049 159.632C23.7128 162.07 24.4871 164.527 25.7604 166.845L25.7432 166.787C26.2192 171.068 26.6551 175.504 27.0337 180.072C27.2172 182.356 27.3835 184.674 27.4925 187.021C27.5499 188.192 27.59 189.374 27.6015 190.562C27.6244 191.159 27.5785 191.744 27.5671 192.341C27.504 192.932 27.4753 193.528 27.3491 194.108C27.1426 195.279 26.7182 196.409 26.1619 197.477C25.6055 198.55 24.9804 199.611 24.4585 200.73C23.3917 202.968 22.7034 205.384 22.2044 207.846C21.2064 212.781 21 217.911 20.9483 223.076C20.9254 229.904 21.2695 236.601 21.8316 243.085L21.8431 243.217L21.975 243.223C26.2537 243.378 30.4463 243.533 34.5357 243.677L34.6561 243.682L34.6848 243.568C38.3211 229.445 41.7222 216.247 44.7104 204.38C45.0774 202.894 45.4388 201.43 45.8001 199.99C45.9837 199.261 46.1041 198.538 46.3278 197.85C46.5457 197.155 46.8038 196.478 47.0677 195.812C47.6068 194.481 48.1861 193.19 48.7768 191.933C48.9259 191.618 49.0751 191.308 49.2242 190.998C49.379 190.694 49.5282 190.378 49.6486 190.057C49.9067 189.42 50.1648 188.794 50.4172 188.169C52.3959 183.159 53.5659 178.299 54.3861 173.863C55.992 164.963 56.2042 157.721 56.2788 152.786C56.3132 147.833 56.1125 145.142 56.1125 145.142C56.1125 145.142 56.1067 145.309 56.1182 145.641C56.124 145.98 56.1412 146.468 56.1584 147.105C56.1928 148.396 56.2157 150.307 56.1813 152.774C56.0781 157.709 55.8314 164.945 54.2026 173.823C53.3709 178.247 52.1952 183.096 50.2107 188.083C49.9583 188.702 49.7002 189.328 49.4421 189.959C49.3217 190.281 49.1783 190.585 49.0177 190.895C48.8686 191.204 48.7195 191.52 48.5646 191.83C47.9681 193.092 47.3831 194.384 46.8382 195.721C46.5687 196.392 46.3106 197.075 46.0869 197.775C45.8575 198.481 45.7313 199.215 45.5478 199.927C45.1864 201.367 44.8251 202.83 44.4523 204.317C41.4068 216.172 38.0171 229.371 34.3865 243.493L34.5357 243.384C30.4463 243.235 26.2537 243.08 21.975 242.925L22.1184 243.063C21.562 236.595 21.2179 229.899 21.2409 223.087C21.2982 217.934 21.499 212.815 22.4912 207.915C22.9844 205.47 23.6727 203.077 24.7223 200.868C25.2385 199.76 25.8579 198.71 26.42 197.62C26.9878 196.535 27.4237 195.371 27.6359 194.165C27.7678 193.569 27.7965 192.96 27.8596 192.364C27.8711 191.761 27.9169 191.159 27.894 190.562C27.8825 189.368 27.8424 188.186 27.785 187.01C27.6703 184.657 27.504 182.339 27.3204 180.055C26.9419 175.487 26.5003 171.045 26.0185 166.759L26.0128 166.73L25.9956 166.701C24.7567 164.446 23.9709 161.984 23.363 159.574C22.7837 157.153 22.3879 154.72 22.2331 152.344C22.1585 149.962 22.4224 147.627 22.9099 145.412C23.3859 143.191 24.0455 141.068 24.8599 139.094L24.8542 139.105C26.0013 137.074 27.1082 135.1 28.1234 133.298L28.0316 133.355C39.4739 132.736 48.9317 132.225 55.7339 131.858L55.6651 131.795C55.797 136.104 55.9003 139.444 55.9748 141.711C56.015 142.835 56.0437 143.696 56.0609 144.281C56.0895 144.849 56.1125 145.142 56.1125 145.142Z" fill="#455A64"/>
<path d="M47.1003 92.4911C47.1003 92.4911 39.6155 91.1712 40.3382 100.772C40.7684 106.522 42.4603 116.357 43.3952 122.641C43.7164 124.816 44.4276 128.706 47.3011 130.99L67.8914 145.25L74.3897 137.475L56.0018 119.949L53.1111 102.619L47.1003 92.4911Z" fill="#455A64"/>
<path d="M47.9742 57.8889C50.3487 59.7596 51.708 62.8584 51.4728 65.8768C51.3581 67.3401 50.9566 69.0157 51.9087 70.1347C52.8493 71.2422 54.7076 71.2078 55.6081 72.3497C56.6749 73.6925 55.7802 75.6895 56.1644 77.3594C56.52 78.926 58.1776 80.0851 59.7721 79.8785C57.9023 81.405 55.6024 82.4034 53.2107 82.7248C52.597 81.9386 51.989 81.1525 51.3753 80.3663C52.0693 81.1926 51.8858 82.5067 51.2147 83.3503C50.5437 84.1938 49.4998 84.6529 48.4732 84.98C43.5579 86.5408 37.9257 85.6227 33.7617 82.5871" fill="#263238"/>
<path d="M20.4306 70.8402C20.7977 69.7155 21.4114 68.6768 21.658 67.5177C22.1914 65.0329 20.9812 62.2383 22.1857 60.0003C23.046 58.4108 24.8699 57.6304 26.5962 57.0967C28.3226 56.563 30.1752 56.1154 31.4656 54.8472C32.412 53.9176 32.9454 52.6379 33.8917 51.7026C35.2338 50.3713 37.2126 49.9237 39.0995 49.8032C41.0381 49.6826 43.0398 49.872 44.7777 50.727C46.5212 51.5821 47.9666 53.1888 48.2763 55.1055C48.4254 56.0408 48.3107 57.0163 48.6089 57.9173C48.9301 58.9043 49.7102 59.6732 50.1862 60.5971C51.1956 62.5482 50.6508 65.1764 48.9416 66.5651L35.6468 83.7459C32.8536 84.8018 26.0858 83.5221 23.9292 81.462C21.7727 79.3962 19.5015 73.6807 20.4306 70.8402Z" fill="#263238"/>
<path d="M48.5924 64.3787C48.0418 60.4765 45.0766 55.8686 41.2052 56.5801L29.2525 60.6028C28.0767 60.8208 28.9198 62.7375 29.0345 63.9311L31.6327 90.9016C31.6155 90.9074 30.021 92.055 29.4417 91.8312C29.2926 91.7739 29.1607 91.9403 29.2467 92.0723C30.6806 94.1553 37.4599 103.274 44.44 100.491C46 99.8708 44.2794 94.9529 44.4572 93.1281L44.2507 88.4743C44.0958 86.0986 44.0213 85.123 44.027 85.146C44.027 85.146 48.971 83.9294 49.5044 77.3188C49.7739 74.0307 49.2061 68.7169 48.5924 64.3787Z" fill="#FFBF9D"/>
<path d="M47.7584 70.387C47.81 70.8288 47.4774 71.2362 47.0185 71.2936C46.5597 71.351 46.1467 71.0469 46.0951 70.605C46.0435 70.1632 46.3762 69.7557 46.835 69.6983C47.2996 69.6352 47.7125 69.9451 47.7584 70.387Z" fill="#263238"/>
<path d="M39.6373 70.8958C39.6889 71.3376 39.3563 71.745 38.8974 71.8024C38.4386 71.8598 38.0257 71.5557 37.974 71.1138C37.9224 70.672 38.2551 70.2645 38.7139 70.2071C39.1785 70.144 39.5914 70.4539 39.6373 70.8958Z" fill="#263238"/>
<path d="M48.0473 67.6213C47.9555 67.7762 47.1755 67.2827 46.2005 67.4262C45.2254 67.5524 44.6003 68.2353 44.4741 68.1148C44.411 68.0632 44.4856 67.7935 44.7609 67.4893C45.0247 67.1852 45.5122 66.8524 46.1202 66.7663C46.7281 66.6859 47.2787 66.8696 47.6171 67.0934C47.9498 67.3172 48.0932 67.5524 48.0473 67.6213Z" fill="#263238"/>
<path d="M39.3084 68.3446C39.1937 68.4881 38.4251 67.9315 37.3755 67.9716C36.3259 68.0003 35.5803 68.6086 35.4599 68.4766C35.4025 68.4192 35.5115 68.1668 35.8384 67.8913C36.1539 67.6159 36.7102 67.3404 37.3641 67.3175C38.0179 67.2945 38.58 67.5298 38.9069 67.7823C39.2453 68.0405 39.3657 68.2815 39.3084 68.3446Z" fill="#263238"/>
<path d="M42.5977 74.5213C42.5919 74.4696 43.1426 74.3319 44.043 74.1426C44.2724 74.1024 44.4847 74.0393 44.5133 73.8786C44.5535 73.7064 44.4388 73.4654 44.3069 73.2072C44.0488 72.6678 43.7792 72.0997 43.4924 71.5086C42.3568 69.087 41.5137 67.0843 41.6112 67.0384C41.7087 66.9925 42.7124 68.9206 43.848 71.3422C44.1233 71.939 44.3872 72.5129 44.6338 73.058C44.7428 73.3105 44.9148 73.5974 44.823 73.9532C44.7772 74.1311 44.6166 74.2688 44.4732 74.3205C44.3298 74.3778 44.1979 74.3893 44.0889 74.4065C43.1712 74.527 42.6034 74.5729 42.5977 74.5213Z" fill="#263238"/>
<path d="M44.0416 85.1449C44.0416 85.1449 39.6711 85.7646 35.1172 83.4807C35.1172 83.4807 37.6695 87.8993 44.1563 86.786L44.0416 85.1449Z" fill="#FF9A6C"/>
<path d="M39.8397 77.1581C39.9601 76.9516 40.092 76.7278 40.3042 76.6072C40.5337 76.4753 40.8204 76.481 41.0843 76.5269C41.4685 76.5958 41.8414 76.7622 42.1052 77.0491C42.369 77.336 42.4952 77.7607 42.3633 78.1279C42.26 78.5067 41.698 78.7132 41.3137 78.7764C40.9294 78.8452 40.5279 78.7305 40.1895 78.5411C39.9028 78.3804 39.6275 78.1222 39.616 77.7951C39.6045 77.5713 39.725 77.359 39.8397 77.1581Z" fill="#FF9A6C"/>
<path d="M40.0165 75.8867C40.1599 75.8695 40.2402 76.845 41.1292 77.4762C42.0182 78.1075 43.0506 77.9181 43.0735 78.0558C43.0907 78.1189 42.8556 78.2624 42.414 78.3083C41.9838 78.3542 41.3414 78.2681 40.7966 77.8779C40.2517 77.4935 39.9879 76.9368 39.9248 76.5409C39.8559 76.1335 39.9477 75.8867 40.0165 75.8867Z" fill="#263238"/>
<path d="M39.2152 64.8155C39.1464 65.068 38.2344 65.0221 37.1906 65.2287C36.141 65.4181 35.3093 65.7911 35.1545 65.5845C35.0856 65.4869 35.2176 65.2402 35.5388 64.9762C35.8599 64.7123 36.3876 64.4483 37.0185 64.3278C37.6494 64.2073 38.2344 64.2647 38.6359 64.3909C39.0374 64.5229 39.2439 64.695 39.2152 64.8155Z" fill="#263238"/>
<path d="M47.4964 64.3202C47.3301 64.5383 46.6074 64.3834 45.7528 64.435C44.8982 64.4637 44.187 64.6932 44.0035 64.4924C43.9232 64.3948 44.0207 64.1825 44.319 63.9645C44.6172 63.7464 45.1219 63.5513 45.7127 63.5226C46.2977 63.4939 46.8196 63.6431 47.1351 63.8267C47.4505 64.0104 47.5652 64.2169 47.4964 64.3202Z" fill="#263238"/>
<path d="M26.6145 61.5438C27.2168 60.6141 28.3008 60.1378 29.3332 59.7362C33.7839 58.0146 38.4468 56.8268 43.1786 56.207C43.7693 57.1768 43.2245 58.5024 42.3355 59.2082C41.4465 59.9141 40.3051 60.1952 39.2383 60.5912C38.1715 60.9871 37.0818 61.6011 36.6459 62.6513C36.1813 63.7645 36.5713 65.0901 36.1641 66.2263C35.4586 68.1831 32.7286 68.8143 32.0346 70.7769C31.5126 72.2574 32.3672 73.8412 32.5852 75.3963C32.8261 77.1637 32.1722 79.0287 30.8817 80.2567C29.8608 81.2265 28.4671 81.7659 27.0677 81.7946C26.7465 76.1767 26.4195 70.5646 26.0984 64.9466C26.0238 63.7875 25.9779 62.525 26.6145 61.5438Z" fill="#263238"/>
<path d="M15.3062 75.7291C16.1951 74.9315 17.3021 74.2486 17.6577 73.1067C18.1739 71.4483 16.8433 69.503 17.6978 67.9938C18.4779 66.6165 20.7778 66.6854 21.5062 65.2795C22.074 64.1834 21.4202 63.2079 21.6381 62.2439C21.856 61.2798 23.2211 60.4363 24.2019 60.551L31.8702 71.6663C32.5814 75.3963 33.2983 77.3818 32.4953 79.5624C32.0537 80.7617 31.4859 81.9266 31.3138 83.1891C31.1418 84.4515 31.463 85.8804 32.4953 86.6321C27.9127 86.9937 23.6168 84.5893 19.6479 82.2709C18.2484 81.4503 16.849 80.6355 15.4438 79.8149C15.0079 79.5567 14.5491 79.287 14.291 78.8508C13.6773 77.8409 14.4229 76.5268 15.3062 75.7291Z" fill="#263238"/>
<path d="M19.5293 81.1524C19.5293 81.1524 19.6899 81.2155 20.0168 81.2442C20.3437 81.2786 20.837 81.2901 21.4449 81.1409C22.0472 80.9917 22.7813 80.6876 23.4351 80.0678C24.089 79.4596 24.6167 78.5127 24.7486 77.388C24.8117 76.8256 24.7715 76.2231 24.5994 75.6263C24.4216 75.0295 24.089 74.4729 23.7506 73.922C23.4122 73.3711 23.0451 72.803 22.8731 72.1545C22.7067 71.5176 22.701 70.7601 23.1197 70.2092C23.5384 69.6526 24.3127 69.5149 25.0296 69.2222C25.3909 69.0787 25.7637 68.855 26.0046 68.4992C26.2455 68.1434 26.3258 67.7073 26.3201 67.2941C26.3086 66.4563 25.953 65.6873 25.7982 64.9069C25.7179 64.5167 25.6892 64.1093 25.7924 63.7363C25.8899 63.3633 26.1251 63.0305 26.452 62.8067C27.1116 62.3361 27.9604 62.2558 28.7691 62.1869C29.5893 62.1295 30.4439 61.9459 31.1321 61.4926C31.8319 61.0622 32.3882 60.4424 32.7495 59.7366C33.1051 59.025 33.2313 58.2618 33.346 57.5388C33.455 56.8157 33.5582 56.1099 33.7934 55.4787C34.0343 54.8475 34.4186 54.2966 34.8717 53.8547C35.7951 52.9767 36.9651 52.5062 38.0434 52.4201C39.1274 52.3283 40.1139 52.6152 40.8824 53.0112C41.6567 53.4071 42.236 53.9064 42.649 54.354C43.4749 55.2721 43.7043 55.9378 43.7387 55.9206C43.7444 55.9206 43.7272 55.8804 43.6928 55.8C43.6584 55.7254 43.6125 55.6049 43.5322 55.4615C43.3831 55.1688 43.1307 54.7557 42.7178 54.2851C42.3106 53.8146 41.7313 53.2981 40.9455 52.8792C40.1655 52.4603 39.1561 52.1504 38.0204 52.2307C36.902 52.3111 35.6861 52.7816 34.7111 53.694C34.235 54.1589 33.8221 54.7327 33.5697 55.3984C33.3116 56.064 33.2084 56.7871 33.0994 57.5044C32.9847 58.2217 32.8528 58.9619 32.5201 59.6276C32.1817 60.2875 31.6541 60.8671 30.9945 61.2745C30.3406 61.6991 29.5606 61.8656 28.7462 61.9287C27.9432 62.0033 27.037 62.0721 26.2971 62.5943C25.9301 62.8468 25.6433 63.237 25.5343 63.6732C25.4196 64.1093 25.454 64.5511 25.5401 64.9643C25.7064 65.7906 26.0563 66.5366 26.062 67.3056C26.0677 67.6843 25.9932 68.0631 25.7924 68.3557C25.5917 68.6541 25.2762 68.8492 24.9321 68.9927C24.588 69.1361 24.2209 69.2337 23.8653 69.3886C23.5097 69.5321 23.1598 69.7444 22.9247 70.0658C22.4429 70.7142 22.4659 71.5463 22.6494 72.2177C22.8387 72.9178 23.2287 73.4916 23.5671 74.0425C23.9112 74.5934 24.2381 75.127 24.4102 75.6894C24.5822 76.2518 24.6224 76.8314 24.5708 77.3708C24.4618 78.4553 23.9628 79.3677 23.3434 79.9645C22.7239 80.5671 22.0185 80.8827 21.4277 81.0434C20.2233 81.3475 19.5293 81.1065 19.5293 81.1524Z" fill="#455A64"/>
<path d="M13.4173 73.2501C13.4173 73.2501 13.3255 73.3649 13.2681 73.6231C13.2108 73.8813 13.2165 74.306 13.4631 74.7593C13.5893 74.9774 13.7786 75.2069 14.0482 75.3791C14.3177 75.5455 14.6561 75.6488 15.0289 75.6373C15.7573 75.643 16.6177 75.2069 17.0363 74.3634C17.2486 73.9502 17.3633 73.4682 17.3633 72.9632C17.3633 72.4582 17.2314 71.9418 17.0421 71.4483C16.6807 70.4555 16.0154 69.4914 16.004 68.3265C15.9925 67.7642 16.1244 67.1559 16.5374 66.7485C16.9446 66.3353 17.5755 66.232 18.2006 66.2263C18.8315 66.2033 19.5141 66.2837 20.1851 66.0197C20.512 65.8877 20.8103 65.641 20.9996 65.3311C21.1946 65.0212 21.2921 64.6712 21.3322 64.3211C21.4182 63.6038 21.2519 62.9267 21.1659 62.284C21.0626 61.6356 21.1028 60.9986 21.2691 60.3961C21.6075 59.191 22.4162 58.1753 23.4027 57.5957C24.3949 56.9989 25.5478 56.93 26.5802 56.8669C27.624 56.8095 28.6277 56.7464 29.4823 56.4079C30.3369 56.0922 31.0194 55.6102 31.5356 55.1167C32.0575 54.6232 32.4131 54.1067 32.6598 53.6706C33.1473 52.7812 33.2046 52.2131 33.2046 52.2131C33.1702 52.2016 33.0727 52.7582 32.568 53.619C32.3099 54.0436 31.9543 54.5371 31.4324 55.0077C30.9162 55.4782 30.2451 55.9373 29.4135 56.23C28.5876 56.5456 27.6125 56.5972 26.563 56.6431C25.5306 56.6948 24.3376 56.7464 23.2708 57.3776C22.2212 57.9859 21.3724 59.0475 21.011 60.3215C20.8332 60.9527 20.7873 61.6528 20.8963 62.3184C20.9823 62.9841 21.1372 63.644 21.0626 64.2924C20.9996 64.9409 20.6612 65.5549 20.0761 65.7787C19.4969 66.014 18.8315 65.9508 18.1892 65.9681C17.5525 65.9738 16.8299 66.0771 16.3481 66.5706C15.8663 67.0526 15.7344 67.7355 15.7516 68.3323C15.7631 68.9463 15.9466 69.5259 16.1703 70.0423C16.394 70.5645 16.6406 71.0466 16.8299 71.5286C17.0191 72.0106 17.1453 72.4926 17.1511 72.9632C17.1568 73.4337 17.0536 73.8871 16.8643 74.2715C16.4857 75.0577 15.7057 75.4766 15.0232 75.4824C14.6791 75.4938 14.3636 75.4078 14.1113 75.2643C13.8589 75.1151 13.6754 74.9085 13.5492 74.7019C13.3026 74.283 13.2739 73.8756 13.314 73.6288C13.3599 73.3764 13.4287 73.2559 13.4173 73.2501Z" fill="#263238"/>
<path d="M61.7289 75.9875C61.6887 75.9818 61.9755 76.4294 61.7116 77.1869C61.5797 77.5426 61.2815 77.9788 60.7596 78.1509C60.2491 78.3231 59.5436 78.1911 59.0791 77.6918C58.8439 77.4451 58.7063 77.1065 58.6833 76.7335C58.6604 76.3605 58.7349 75.9646 58.8611 75.5744C59.102 74.7997 59.601 73.9504 59.5264 72.9404C59.4691 71.9592 58.9758 70.9549 58.1327 70.2893C57.714 69.9564 57.2265 69.6982 56.7046 69.5375C56.1769 69.3654 55.6148 69.331 55.07 69.3023C54.5251 69.2736 53.986 69.2621 53.487 69.1359C52.988 69.0153 52.5406 68.7629 52.2539 68.3669C51.9671 67.9767 51.8409 67.4889 51.8065 67.0126C51.7721 66.5306 51.8294 66.0601 51.9269 65.601C52.1162 64.6828 52.3915 63.7934 52.3399 62.9154C52.294 62.0432 51.9614 61.2685 51.5197 60.6889C51.0781 60.0921 50.5046 59.7306 50.0285 59.4264C49.5467 59.1223 49.1338 58.8641 48.8355 58.6001C48.2218 58.0837 48.1186 57.6131 48.0842 57.6361C48.0784 57.6361 48.0842 57.6648 48.1014 57.7164C48.1186 57.768 48.1415 57.8484 48.1932 57.9402C48.2849 58.1353 48.4627 58.405 48.761 58.6805C49.0592 58.9616 49.4664 59.2428 49.9425 59.5527C50.4128 59.8683 50.9576 60.2298 51.3649 60.8037C51.7778 61.366 52.0818 62.1063 52.1162 62.9269C52.1564 63.7532 51.8868 64.614 51.6861 65.5493C51.5886 66.0142 51.5197 66.5191 51.5541 67.0299C51.5886 67.5406 51.7205 68.0742 52.0417 68.5218C52.3686 68.9752 52.8848 69.2621 53.4239 69.3941C53.963 69.5261 54.5136 69.5375 55.0585 69.5662C55.6034 69.5949 56.131 69.6294 56.6243 69.79C57.1175 69.9392 57.5764 70.1802 57.9664 70.4901C58.7521 71.1099 59.2225 72.0395 59.2798 72.9519C59.3601 73.8758 58.9013 74.6906 58.6489 75.5055C58.5227 75.9187 58.4482 76.3376 58.4768 76.7507C58.5055 77.1582 58.6719 77.5541 58.9414 77.8238C59.4748 78.3747 60.2491 78.501 60.8112 78.2944C61.3847 78.0821 61.6887 77.6058 61.8149 77.2213C61.9468 76.8253 61.9124 76.4925 61.8608 76.2859C61.7977 76.0793 61.7289 75.9875 61.7289 75.9875Z" fill="#263238"/>
<path d="M56.2446 120.937V114.584C56.9558 111.026 56.6174 106.803 54.9656 103.543C54.002 101.644 51.7881 98.6198 50.9852 97.4893L44.6647 89.2949C41.189 91.8255 35.7518 89.995 31.0831 88.2964C31.0831 88.2964 26.4718 90.85 24.3267 93.2486C22.0727 95.7736 29.7811 127.364 29.7811 127.364C26.2883 134.353 21.7859 140.545 21.0977 146.932L57.5752 148.337L56.0266 131.604L56.2446 120.937Z" fill="#38A585"/>
<path d="M55.7416 131.777C55.7186 131.777 55.7129 131.518 55.7129 131.059C55.7186 130.537 55.7244 129.889 55.7358 129.114C55.7645 127.41 55.7989 125.172 55.8391 122.698C55.885 120.191 55.9538 117.924 56.0341 116.283C56.0742 115.462 56.1144 114.797 56.1488 114.338C56.1889 113.878 56.2176 113.626 56.2348 113.626C56.2578 113.626 56.2635 113.884 56.2635 114.343C56.2578 114.865 56.252 115.514 56.2406 116.289C56.2119 117.993 56.1775 120.231 56.1373 122.704C56.0914 125.212 56.0226 127.479 55.9423 129.12C55.9022 129.94 55.862 130.606 55.8276 131.065C55.7932 131.53 55.7588 131.782 55.7416 131.777Z" fill="#263238"/>
<path d="M72.4037 137.555C72.4037 137.555 75.954 137.75 78.1621 139.127C80.3645 140.51 83.9033 142.651 85.3601 145.308C86.0312 146.53 84.1213 146.788 83.1749 146.076C82.2343 145.365 80.789 144.034 80.072 143.867C79.3551 143.701 79.3551 143.701 79.3551 143.701C79.3551 143.701 80.7947 146.909 81.5403 148.033C82.2859 149.158 82.9283 151.086 80.7029 151.178C80.7029 151.178 79.2002 153.129 77.6861 151.683C77.6861 151.683 76.5046 153.45 74.6004 151C74.6004 151 73.4935 152.406 73.0289 151.867C72.5643 151.333 71.0501 150.478 70.6085 148.722C70.1669 146.966 68.3086 142.702 68.3086 142.702L72.4037 137.555Z" fill="#FFBF9D"/>
<path d="M152.015 88.2386C152.411 88.2443 168.7 86.5285 168.7 86.5285C168.7 86.5285 170.076 79.9007 170.007 78.1791C169.933 76.4576 168.774 65.0668 168.774 65.0668L174.871 62.1804C174.871 62.1804 183.021 89.6789 181.237 91.9686C179.454 94.2524 176.116 96.2953 175.829 96.3068C175.542 96.3183 160.05 103.187 149.274 99.6179C138.491 96.0543 152.015 88.2386 152.015 88.2386Z" fill="#FFBF9D"/>
<path d="M137.746 103.084C140.144 105.466 144.273 107.44 151.161 105.724C164.795 102.321 175.004 99.4346 179.07 97.231C183.131 95.0218 181.548 85.3066 181.892 84.8647C182.924 83.5334 181.794 80.6757 180.326 80.2281C176.157 78.9657 168.901 79.4649 168.534 79.8436C166.395 82.0931 168.345 84.8246 168.345 84.8246L150.376 87.1773C150.376 87.1773 147.25 86.965 143.774 87.602" fill="#455A64"/>
<path d="M143.776 87.6018C143.776 87.6018 143.92 87.5617 144.206 87.51C144.493 87.4526 144.918 87.3838 145.48 87.3149C146.598 87.1772 148.256 87.0222 150.383 87.1083H150.372C154.662 86.5345 160.862 85.7024 168.335 84.6982L168.249 84.899C167.693 84.0497 167.343 83.0226 167.423 81.9437C167.464 81.4101 167.653 80.8764 167.94 80.4173C168.072 80.1763 168.261 79.9755 168.433 79.7631C168.49 79.7172 168.594 79.6598 168.668 79.6369L168.875 79.5853C169.012 79.5508 169.144 79.5393 169.282 79.5106C171.438 79.2352 173.675 79.2237 175.981 79.3672C177.134 79.4475 178.304 79.5852 179.468 79.8492C179.76 79.9181 180.047 79.9984 180.34 80.073C180.644 80.1706 180.93 80.337 181.16 80.555C181.63 80.9797 181.946 81.5363 182.175 82.1159C182.393 82.7012 182.496 83.3439 182.41 83.9866C182.347 84.3022 182.255 84.6293 182.049 84.899C181.997 84.9564 182.003 85.1113 181.997 85.2605L182.003 85.7196C182.049 86.9534 182.101 88.2101 182.072 89.4783C182.02 91.2801 181.86 93.0992 181.217 94.7691C180.896 95.5954 180.426 96.3988 179.72 96.9669C179.376 97.2653 178.969 97.449 178.59 97.6441C178.206 97.8449 177.81 98.0056 177.42 98.1835C175.855 98.8549 174.272 99.4057 172.723 99.9165C171.169 100.433 169.637 100.898 168.14 101.334C162.147 103.078 156.692 104.45 152.116 105.592C150.974 105.884 149.867 106.125 148.812 106.28C147.751 106.407 146.747 106.493 145.801 106.441C143.914 106.389 142.314 105.953 141.103 105.42C139.888 104.88 139.056 104.26 138.522 103.813C137.989 103.365 137.754 103.084 137.754 103.084C137.771 103.067 138.018 103.337 138.563 103.767C139.102 104.197 139.945 104.794 141.149 105.316C142.354 105.827 143.937 106.24 145.801 106.275C146.736 106.315 147.728 106.223 148.777 106.091C149.827 105.93 150.911 105.689 152.058 105.385C156.629 104.22 162.072 102.826 168.054 101.07C169.551 100.628 171.077 100.157 172.626 99.641C174.174 99.1246 175.746 98.5737 177.3 97.908C177.684 97.7301 178.08 97.5752 178.453 97.3744C178.837 97.1792 179.221 97.0071 179.531 96.7317C180.179 96.2095 180.627 95.452 180.936 94.6543C181.556 93.0418 181.716 91.2457 181.768 89.4611C181.802 88.2044 181.745 86.9591 181.699 85.7196L181.693 85.2491C181.693 85.1687 181.699 85.0884 181.705 85.0023C181.716 84.9564 181.711 84.922 181.728 84.8589C181.739 84.8244 181.756 84.79 181.774 84.7613L181.802 84.7154C181.974 84.4916 182.055 84.2104 182.112 83.9292C182.187 83.3554 182.095 82.7586 181.888 82.2077C181.676 81.6626 181.378 81.1461 180.953 80.7616C180.747 80.5665 180.506 80.4288 180.242 80.3427C179.955 80.2681 179.674 80.1878 179.393 80.1189C178.252 79.8607 177.093 79.723 175.952 79.6369C173.669 79.4877 171.427 79.4934 169.31 79.7631C169.184 79.7861 169.047 79.7976 168.926 79.832L168.743 79.8779C168.691 79.9009 168.668 79.9009 168.622 79.9296C168.462 80.1304 168.278 80.314 168.158 80.5378C167.888 80.9682 167.716 81.4502 167.676 81.9495C167.596 82.9422 167.934 83.935 168.444 84.7326L168.559 84.9048L168.358 84.9277C160.879 85.886 154.674 86.6779 150.378 87.2288H150.372H150.366C148.261 87.1198 146.598 87.2518 145.48 87.3665C144.918 87.4239 144.493 87.4813 144.206 87.5272C143.925 87.5903 143.776 87.6018 143.776 87.6018Z" fill="#263238"/>
<path d="M235.589 18.7233L236.214 19.8538C238.061 23.1706 236.868 27.3539 233.553 29.1959L95.1214 106.292L87.8145 93.1564L226.251 16.0607C229.561 14.2187 233.748 15.4065 235.589 18.7233Z" fill="#F7BA34"/>
<path d="M204.271 0.659092L221.225 31.1301L211.205 36.7136L194.251 6.24258C193.907 5.62283 194.131 4.8424 194.75 4.4981L202.528 0.165588C203.141 -0.184455 203.927 0.039343 204.271 0.659092Z" fill="#F7BA34"/>
<path d="M187.874 16.9449L200.228 39.1469C200.727 40.0478 200.406 41.1783 199.505 41.6775L192.738 45.4477C191.837 45.9469 190.707 45.6256 190.208 44.7246L177.854 22.5227C177.355 21.6218 177.676 20.4913 178.577 19.992L185.345 16.2219C186.245 15.7227 187.375 16.044 187.874 16.9449Z" fill="#F7BA34"/>
<path d="M188.759 21.2131L196.408 34.9622L211.974 26.2928L204.325 12.5438L188.759 21.2131Z" fill="#F7BA34"/>
<path d="M224.215 17.1973C224.255 17.2719 197.086 32.4787 163.545 51.1573C129.987 69.8416 102.761 84.9279 102.721 84.859C102.681 84.7844 129.844 69.5833 163.396 50.8933C196.943 32.2147 224.175 17.1227 224.215 17.1973Z" fill="#263238"/>
<path d="M39.056 131.707C49.2594 150.047 70.7846 157.536 87.1364 148.435C103.488 139.334 108.467 117.08 98.2632 98.7345C88.0598 80.3887 66.5346 72.9058 50.1828 82.007C33.8368 91.1139 28.8526 113.362 39.056 131.707ZM89.4077 103.664C96.5598 116.518 93.0669 132.109 81.6132 138.49C70.1537 144.871 55.0694 139.621 47.9231 126.772C40.7709 113.918 44.2638 98.327 55.7176 91.9459C67.1713 85.5648 82.2555 90.8154 89.4077 103.664Z" fill="#F7BA34"/>
<path d="M118.246 76.0161L125.8 89.5932C126.803 91.4008 126.155 93.6732 124.354 94.6774L123.741 95.0217C121.934 96.0259 119.663 95.3775 118.659 93.5756L111.105 79.9985C110.102 78.1909 110.75 75.9185 112.551 74.9143L113.164 74.57C114.965 73.56 117.242 74.2084 118.246 76.0161Z" fill="#F7BA34"/>
<path d="M132.76 67.9365L140.313 81.5136C141.317 83.3212 140.669 85.5936 138.868 86.5978L138.254 86.9421C136.448 87.9463 134.176 87.2979 133.173 85.496L125.619 71.9189C124.615 70.1113 125.263 67.8389 127.064 66.8347L127.678 66.4904C129.479 65.4804 131.756 66.1289 132.76 67.9365Z" fill="#F7BA34"/>
<path d="M118.088 75.7809C118.163 75.7407 119.912 78.8223 122.006 82.6613C124.099 86.5003 125.734 89.6449 125.659 89.6851C125.585 89.7253 123.835 86.6437 121.742 82.8047C119.648 78.9657 118.014 75.8211 118.088 75.7809Z" fill="#263238"/>
<path d="M111.432 80.5436C111.506 80.5035 113.216 83.4415 115.252 87.1084C117.293 90.7752 118.888 93.7764 118.813 93.8166C118.739 93.8568 117.03 90.9187 114.988 87.2518C112.957 83.5907 111.363 80.5838 111.432 80.5436Z" fill="#263238"/>
<path d="M132.686 67.81C132.761 67.7698 134.539 70.8398 136.666 74.6616C138.794 78.4834 140.458 81.6166 140.389 81.6568C140.314 81.6969 138.536 78.6326 136.408 74.8051C134.28 70.9833 132.611 67.8501 132.686 67.81Z" fill="#263238"/>
<path d="M125.684 72.0448C125.759 72.0047 127.502 75.0518 129.584 78.8506C131.666 82.6494 133.295 85.7597 133.221 85.7998C133.146 85.84 131.402 82.7929 129.32 78.9941C127.238 75.1952 125.61 72.085 125.684 72.0448Z" fill="#263238"/>
<path d="M167.295 51.3461C168.614 51.5011 169.967 50.5313 170.254 49.2344C170.541 47.9375 169.715 46.4914 168.453 46.0725C169.273 45.2347 169.486 43.8517 168.946 42.8074C168.407 41.763 167.163 41.1317 166.004 41.3096C165.958 40.1505 165.27 39.0372 164.249 38.4806C163.228 37.924 161.92 37.9469 160.922 38.5322C159.643 37.4305 157.579 37.3846 156.248 38.4289C155.124 38.2166 153.891 38.8192 153.363 39.8349C152.83 40.8506 153.042 42.2048 153.862 43.0082" fill="#263238"/>
<path d="M155.661 41.1084H156.257C162.251 41.1256 167.229 45.745 167.688 51.7245C168.118 57.285 168.525 63.4366 168.479 66.4148C168.382 72.5894 162.21 73.5305 162.21 73.5305L162.709 80.9503L147.728 80.4395L146.484 53.5263C145.95 47.1223 149.237 41.4642 155.661 41.1084Z" fill="#FFBF9D"/>
<path d="M162.265 73.5321C162.265 73.5321 158.325 73.7559 154.184 71.1392C154.184 71.1392 156.168 75.816 162.328 75.2766L162.265 73.5321Z" fill="#FF9A6C"/>
<path d="M164.31 57.5267C164.327 57.9915 163.943 58.3875 163.456 58.4162C162.968 58.4391 162.567 58.0833 162.549 57.6185C162.532 57.1537 162.916 56.7578 163.398 56.7291C163.886 56.7061 164.293 57.0619 164.31 57.5267Z" fill="#263238"/>
<path d="M166.341 54.7444C166.232 54.8592 165.567 54.36 164.615 54.36C163.668 54.3485 162.969 54.8305 162.865 54.7157C162.814 54.6641 162.929 54.4575 163.233 54.2395C163.531 54.0214 164.041 53.8091 164.632 53.8148C165.223 53.8205 165.722 54.0386 166.003 54.2624C166.301 54.4862 166.398 54.6928 166.341 54.7444Z" fill="#263238"/>
<path d="M155.754 57.12C155.771 57.5848 155.386 57.9807 154.899 58.0094C154.411 58.0324 154.01 57.6766 153.993 57.2118C153.976 56.747 154.36 56.351 154.847 56.3223C155.329 56.2994 155.736 56.6552 155.754 57.12Z" fill="#263238"/>
<path d="M157.033 54.8948C156.924 55.0096 156.258 54.5103 155.306 54.5103C154.36 54.4989 153.66 54.9809 153.557 54.8661C153.505 54.8145 153.62 54.6079 153.924 54.3898C154.222 54.1718 154.733 53.9595 155.323 53.9652C155.914 53.9709 156.413 54.189 156.694 54.4128C156.987 54.6366 157.084 54.8432 157.033 54.8948Z" fill="#263238"/>
<path d="M160.446 61.944C160.441 61.8924 161.031 61.7891 161.989 61.6686C162.23 61.6456 162.459 61.5997 162.5 61.4333C162.557 61.2611 162.459 60.9972 162.339 60.716C162.115 60.1307 161.874 59.5109 161.628 58.8682C160.641 56.24 159.93 54.0766 160.033 54.0365C160.142 53.9963 161.026 56.0965 162.012 58.7305C162.247 59.3789 162.477 59.9987 162.695 60.5897C162.786 60.8652 162.941 61.1808 162.815 61.5423C162.752 61.7259 162.568 61.8522 162.414 61.8981C162.259 61.944 162.121 61.9497 162.001 61.9555C161.049 61.9899 160.452 61.9956 160.446 61.944Z" fill="#263238"/>
<path d="M157.867 51.2443C157.741 51.4854 156.927 51.2214 155.929 51.187C154.931 51.1296 154.088 51.3132 153.996 51.0665C153.956 50.9459 154.133 50.7336 154.495 50.5385C154.85 50.3492 155.395 50.2 155.997 50.2286C156.6 50.2573 157.116 50.4524 157.443 50.6762C157.775 50.9 157.925 51.1296 157.867 51.2443Z" fill="#263238"/>
<path d="M166.425 50.8305C166.224 51.0428 165.444 50.819 164.503 50.8076C163.563 50.7674 162.765 50.9453 162.582 50.7215C162.502 50.6125 162.628 50.3944 162.978 50.1936C163.322 49.9927 163.895 49.8263 164.543 49.8435C165.192 49.8607 165.748 50.0616 166.075 50.2796C166.402 50.5034 166.511 50.7272 166.425 50.8305Z" fill="#263238"/>
<path d="M167.1 48.8959C167.1 48.8959 165.483 45.0225 163.625 44.1158C161.371 43.014 160.39 45.493 158.245 44.8848C156.094 44.2765 153.943 43.2206 151.741 44.879C149.332 46.6924 150.45 47.972 150.295 50.715C149.659 61.8246 147.623 64.9578 147.061 59.7243C146.998 59.1505 145.409 58.6914 145.179 56.2698C144.881 53.1251 144.772 49.3148 145.483 47.0883C146.08 45.2118 147.152 43.915 149.079 42.4918C152.119 40.2424 156.278 40.2079 159.105 40.5006C161.933 40.7818 167.376 44.0527 167.1 48.8959Z" fill="#263238"/>
<path d="M147.473 59.5528C147.439 58.6002 146.619 57.8427 145.666 57.9346C144.514 58.0378 143.235 58.692 143.303 61.0735C143.424 65.2969 147.639 64.3042 147.639 64.1837C147.645 64.0919 147.542 61.3145 147.473 59.5528Z" fill="#FFBF9D"/>
<path d="M146.657 62.6093C146.64 62.5979 146.583 62.661 146.462 62.7241C146.342 62.7815 146.136 62.8274 145.912 62.7528C145.459 62.6036 145.063 61.9035 145.023 61.146C145 60.7616 145.069 60.3943 145.201 60.0844C145.321 59.7746 145.516 59.5508 145.74 59.5049C145.963 59.4475 146.124 59.5737 146.181 59.6942C146.239 59.809 146.216 59.8951 146.239 59.9008C146.25 59.9123 146.325 59.8262 146.29 59.6541C146.273 59.568 146.216 59.4704 146.118 59.3958C146.015 59.3155 145.866 59.2811 145.711 59.2983C145.384 59.3327 145.103 59.6368 144.96 59.9754C144.799 60.314 144.713 60.7271 144.736 61.1575C144.788 62.0068 145.247 62.793 145.86 62.9479C146.158 63.0168 146.405 62.9192 146.531 62.8159C146.652 62.7126 146.675 62.6151 146.657 62.6093Z" fill="#FF9A6C"/>
<path d="M147.569 51.3685C148.114 51.7472 148.693 52.1317 149.353 52.2005C150.012 52.2694 150.769 51.8907 150.884 51.2365C150.935 50.9438 150.867 50.5995 151.056 50.3757C151.285 50.106 151.71 50.1921 152.065 50.2323C153.293 50.3643 154.727 49.0157 155.048 47.8221C155.358 48.2927 156.046 48.4361 156.516 48.132C156.992 47.8279 157.164 47.6557 157.537 47.2311C157.91 46.8064 158.432 46.4277 158.988 46.508C159.298 46.5539 159.59 46.7376 159.906 46.7146C160.462 46.6687 160.732 46.0203 160.818 45.4694C160.904 44.9185 160.973 44.2758 161.443 43.9774C161.879 43.7019 162.441 43.8626 162.951 43.943C163.462 44.0176 164.121 43.9028 164.253 43.4035C164.322 43.1396 164.213 42.8641 164.064 42.6346C163.41 41.5959 161.976 41.1311 160.841 41.5902C160.433 40.1958 159.131 39.1055 157.686 38.9448C156.241 38.7899 154.738 39.5703 154.038 40.85C153.149 40.0351 151.853 39.6965 150.677 39.9605C149.502 40.2245 148.481 41.091 148.022 42.2042C146.995 41.9288 145.825 42.3247 145.171 43.1625C144.518 44.0003 144.42 45.2341 144.936 46.1637C144.179 46.5941 143.525 47.3458 143.508 48.2238C143.491 49.0961 144.34 49.9683 145.183 49.7445C144.839 50.4216 145.114 51.3455 145.774 51.73C146.433 52.1145 147.368 51.8907 147.792 51.2594" fill="#263238"/>
<path d="M161.152 42.831C161.158 42.831 161.158 42.8597 161.152 42.9056C161.146 42.9573 161.141 43.0319 161.123 43.1294C161.083 43.3245 161.003 43.6115 160.814 43.9443C160.624 44.2714 160.326 44.6444 159.873 44.937C159.431 45.2354 158.823 45.465 158.141 45.4248L158.215 45.333C158.347 45.6945 158.307 46.1249 158.129 46.4979C157.957 46.8766 157.688 47.2094 157.407 47.5365C157.263 47.6915 157.131 47.8751 156.931 48.0186C156.736 48.1563 156.501 48.2366 156.26 48.2653C155.784 48.3227 155.245 48.1735 154.9 47.7718L155.061 47.7259C154.952 48.5637 154.47 49.4015 153.713 49.9122C153.312 50.1992 152.813 50.377 152.325 50.3598C151.838 50.3541 151.385 50.2106 150.96 50.0557L151.075 50.0041C150.845 50.5262 150.496 50.9738 150.071 51.3067C149.652 51.6338 149.102 51.8289 148.597 51.7026C147.599 51.4903 146.945 50.6582 146.813 49.8778L146.911 49.9237C146.418 50.1934 145.884 50.2164 145.46 50.1303C145.03 50.05 144.691 49.8606 144.45 49.677C144.209 49.4876 144.066 49.2925 143.98 49.1605C143.9 49.0228 143.871 48.9424 143.871 48.9424C143.894 48.9252 144.009 49.2638 144.491 49.6196C144.731 49.7917 145.058 49.9639 145.477 50.0327C145.884 50.1016 146.389 50.0672 146.848 49.8147L146.928 49.7688L146.945 49.8606C147.077 50.5894 147.708 51.3641 148.632 51.5534C149.085 51.6625 149.572 51.4903 149.968 51.1804C150.364 50.8706 150.696 50.4402 150.909 49.9467L150.943 49.8663L151.023 49.895C151.442 50.0442 151.878 50.1819 152.331 50.1819C152.784 50.1934 153.226 50.0385 153.61 49.763C154.327 49.281 154.78 48.4948 154.883 47.7029L154.912 47.5021L155.044 47.657C155.336 48.0013 155.812 48.1448 156.242 48.0932C156.455 48.0702 156.667 47.9956 156.833 47.8808C157 47.7661 157.131 47.5882 157.281 47.4275C157.567 47.1062 157.825 46.7848 157.992 46.4348C158.164 46.0904 158.198 45.706 158.089 45.3789L158.055 45.2756L158.158 45.2813C158.801 45.3272 159.386 45.1207 159.816 44.8395C160.257 44.564 160.55 44.2082 160.751 43.8984C161.135 43.2671 161.123 42.8195 161.152 42.831Z" fill="#455A64"/>
<path d="M160.427 65.096C160.398 64.941 159.366 65.1935 158.419 64.4934C157.467 63.7934 157.312 62.6686 157.163 62.6973C157.094 62.6973 157.026 62.99 157.129 63.4605C157.226 63.9196 157.536 64.5451 158.115 64.9755C158.695 65.4001 159.354 65.4862 159.784 65.4116C160.226 65.3427 160.45 65.1648 160.427 65.096Z" fill="#263238"/>
<path d="M192.244 225.645L196.316 239.526C196.316 239.526 211.79 240.042 212.794 242.539L186.17 251.41L178.932 230.04L192.244 225.645Z" fill="#455A64"/>
<path d="M187.677 241.121C187.206 241.431 187.046 242.131 187.338 242.613C187.631 243.095 188.342 243.267 188.812 242.963C189.288 242.659 189.506 241.827 189.162 241.379C188.818 240.932 187.975 240.777 187.585 241.184" fill="#E0E0E0"/>
<path d="M211.279 241.542C211.279 241.542 212.639 241.663 212.782 242.541L186.158 251.412L185.516 249.232L211.279 241.542Z" fill="#263238"/>
<path d="M196.716 239.253C196.756 239.385 196.125 239.66 195.626 240.291C195.11 240.911 194.966 241.583 194.829 241.571C194.703 241.588 194.634 240.745 195.253 239.987C195.867 239.23 196.704 239.127 196.716 239.253Z" fill="white"/>
<path d="M199.865 239.473C199.934 239.588 199.446 239.995 199.188 240.695C198.907 241.384 198.999 242.015 198.867 242.055C198.752 242.118 198.408 241.384 198.747 240.523C199.074 239.662 199.819 239.352 199.865 239.473Z" fill="white"/>
<path d="M202.557 242.291C202.448 242.36 202.053 241.768 202.15 240.942C202.242 240.116 202.758 239.634 202.85 239.72C202.959 239.8 202.689 240.317 202.62 240.994C202.534 241.671 202.683 242.233 202.557 242.291Z" fill="white"/>
<path d="M195.4 236.194C195.383 236.332 194.729 236.349 194.012 236.648C193.29 236.929 192.797 237.365 192.693 237.273C192.584 237.204 192.986 236.539 193.835 236.2C194.684 235.856 195.429 236.068 195.4 236.194Z" fill="white"/>
<path d="M130.116 225.772L124.317 239.027C124.317 239.027 135.84 249.374 135.003 251.927L108.906 241.604L117.091 220.578L130.116 225.772Z" fill="#455A64"/>
<path d="M116.694 234.699C116.132 234.636 115.558 235.066 115.478 235.623C115.392 236.179 115.828 236.765 116.384 236.839C116.94 236.908 117.646 236.414 117.669 235.852C117.692 235.29 117.147 234.63 116.585 234.693" fill="#E0E0E0"/>
<path d="M134.498 250.196C134.498 250.196 135.461 251.16 135.003 251.929L108.906 241.606L109.812 239.517L134.498 250.196Z" fill="#263238"/>
<path d="M124.785 239.06C124.728 239.187 124.069 238.991 123.283 239.152C122.491 239.296 121.946 239.72 121.849 239.623C121.74 239.554 122.233 238.865 123.191 238.687C124.149 238.498 124.86 238.951 124.785 239.06Z" fill="white"/>
<path d="M127.087 241.276C127.07 241.414 126.428 241.408 125.785 241.775C125.132 242.125 124.787 242.665 124.667 242.607C124.541 242.579 124.747 241.798 125.556 241.356C126.365 240.909 127.133 241.15 127.087 241.276Z" fill="white"/>
<path d="M127.327 245.168C127.201 245.15 127.276 244.445 127.878 243.871C128.474 243.297 129.186 243.262 129.197 243.389C129.226 243.521 128.692 243.744 128.205 244.221C127.712 244.68 127.459 245.208 127.327 245.168Z" fill="white"/>
<path d="M125.737 235.894C125.639 235.991 125.123 235.584 124.383 235.348C123.649 235.096 122.995 235.119 122.966 234.981C122.926 234.861 123.66 234.602 124.532 234.895C125.404 235.176 125.84 235.819 125.737 235.894Z" fill="white"/>
<path d="M139.866 152.951L130.724 190.056C130.724 190.056 114.235 217.83 111.441 231.728L126.526 237.662C126.526 237.662 137.498 210.892 140.715 205.98C142.487 203.277 144.357 201.189 145.682 199.857C146.881 198.652 147.753 197.16 148.183 195.519L155.105 169.048L139.866 152.951Z" fill="#0D263A"/>
<path d="M135.975 147.017C135.975 147.017 137.248 156.95 146.803 161.358L166.946 194.181C166.946 194.181 168.529 204.855 171.569 213.847C174.586 222.776 180.665 240.163 180.665 240.163L197.235 233.966L186.676 197.848L184.95 185.321L168.506 143.459L154.385 134.99L135.975 147.017Z" fill="#0D263A"/>
<path d="M135.975 147.017C135.975 147.017 136.072 146.943 136.279 146.811C136.491 146.673 136.795 146.466 137.191 146.203C138.005 145.663 139.209 144.871 140.769 143.838C143.918 141.772 148.512 138.748 154.34 134.921L154.385 134.892L154.431 134.921C158.549 137.383 163.293 140.223 168.564 143.373L168.592 143.391L168.604 143.425C173.204 155.114 178.819 169.38 185.076 185.275L185.082 185.293V185.31C185.627 189.269 186.217 193.504 186.814 197.837L186.808 197.814C189.664 207.575 192.716 218.007 195.859 228.767C196.363 230.5 196.868 232.221 197.367 233.937L197.407 234.069L197.275 234.115C191.632 236.227 186.097 238.293 180.705 240.307L180.562 240.358L180.51 240.215C177.637 231.889 174.873 223.872 172.246 216.269C171.586 214.369 170.938 212.487 170.399 210.605C169.854 208.723 169.372 206.852 168.936 205.01C168.065 201.314 167.365 197.705 166.814 194.204L166.831 194.25C158.59 180.788 151.73 169.581 146.729 161.404L146.763 161.432C144.027 160.147 141.934 158.385 140.437 156.618C138.928 154.85 137.982 153.1 137.345 151.654C136.709 150.196 136.382 149.026 136.193 148.234C136.095 147.838 136.043 147.534 136.009 147.333C135.98 147.126 135.975 147.017 135.975 147.017C135.975 147.017 135.998 147.121 136.038 147.322C136.078 147.522 136.135 147.826 136.244 148.217C136.445 149.003 136.783 150.168 137.431 151.614C138.08 153.054 139.032 154.787 140.54 156.537C142.043 158.282 144.125 160.026 146.843 161.289L146.866 161.3L146.878 161.318C151.902 169.483 158.79 180.673 167.061 194.113L167.072 194.136L167.078 194.164C167.629 197.653 168.34 201.257 169.212 204.947C169.653 206.789 170.135 208.654 170.68 210.53C171.219 212.407 171.867 214.277 172.527 216.183C175.159 223.786 177.93 231.803 180.809 240.123L180.619 240.031C186.011 238.017 191.546 235.946 197.189 233.834L197.097 234.018C196.598 232.307 196.094 230.58 195.589 228.847C192.446 218.088 189.395 207.655 186.544 197.894L186.538 197.883V197.871C185.942 193.544 185.363 189.304 184.818 185.344L184.824 185.379C178.589 169.472 172.997 155.2 168.414 143.505L168.46 143.557C163.201 140.389 158.463 137.537 154.351 135.064H154.437C148.604 138.852 143.999 141.841 140.85 143.89C139.273 144.911 138.062 145.692 137.236 146.225C136.829 146.489 136.519 146.685 136.302 146.822C136.089 146.954 135.975 147.017 135.975 147.017Z" fill="#455A64"/>
<path d="M144.824 76.1079C144.824 76.1079 139.995 79.8264 137.649 83.981C134.839 88.9505 134.535 96.3301 134.449 107.784C134.368 118.383 135.951 121.321 135.338 125.315C134.145 133.113 133.25 159.292 133.25 159.292C133.25 159.292 148.719 153.341 151.741 150.713C154.764 148.085 154.764 148.085 154.764 148.085L174.144 154.495L170.232 130.669L167.548 100.972L164.113 85.2205L163.51 79.0402L146.906 72.3206L144.824 76.1079Z" fill="#38A585"/>
<path d="M162.932 78.6957C163.133 78.7301 162.456 80.0901 161.257 82.0871L161.211 82.1675L161.12 82.133C159.433 81.4788 157.214 80.6583 154.782 79.7745C152.04 78.7761 149.563 77.8464 147.79 77.1234C146.901 76.7619 146.19 76.4577 145.703 76.2339C145.215 76.0101 144.951 75.8781 144.957 75.8609C144.963 75.8437 145.244 75.9355 145.749 76.1249C146.299 76.3315 147.016 76.6012 147.871 76.9225C149.718 77.5997 152.172 78.4949 154.891 79.4934C157.323 80.3828 159.542 81.2264 161.211 81.9207L161.074 81.9666C162.307 79.9983 163.047 78.7072 162.932 78.6957Z" fill="#263238"/>
<path d="M182.95 66.3007C182.95 66.3007 181.722 64.3898 180.564 62.6281C179.399 60.8664 177.65 60.0057 177.375 59.0818C177.094 58.1579 175.551 54.0779 175.304 53.0622C174.96 51.639 175.006 50.0667 175.006 50.0667C175.006 50.0667 176.273 49.5216 176.881 51.3406C177.249 52.4309 178.413 56.1322 178.665 56.3159C178.918 56.4995 179.267 56.2298 179.267 56.2298C179.267 56.2298 177.971 52.672 177.914 51.9948C177.856 51.3234 178.092 46.8762 178.092 46.8762C178.092 46.8762 179.015 46.595 179.617 47.7312C180.219 48.8616 180.242 51.7538 180.242 51.7538L181.154 54.9558L180.839 51.7882L181.298 45.9695C181.298 45.9695 182.743 46.1015 183.133 47.6738C183.517 49.2461 183.007 51.4382 183.271 51.9087C183.529 52.3793 183.81 55.1854 183.81 55.1854C183.81 55.1854 184.125 48.3509 184.854 48.1558C185.582 47.9607 186.184 48.6895 186.081 50.0667C185.978 51.4439 185.949 54.3533 186.328 55.6445C186.706 56.9299 190.589 61.9338 190.268 64.1545C189.947 66.381 189.912 68.16 189.912 68.16H183.236L182.95 66.3007Z" fill="#FFBF9D"/>
<path d="M159.618 83.5046C159.99 83.6481 175.883 87.5789 175.883 87.5789C175.883 87.5789 179.434 81.8175 179.95 80.1763C180.466 78.5351 183.253 67.4255 183.253 67.4255L189.97 66.7886C189.97 66.7886 188.272 95.4233 185.817 96.9612C183.362 98.5048 179.531 99.2852 179.256 99.1992C178.981 99.1131 162.084 100.289 153.159 93.2599C144.235 86.2303 159.618 83.5046 159.618 83.5046Z" fill="#FFBF9D"/>
<g opacity="0.3">
<path opacity="0.3" d="M148.222 98.6598C148.222 98.6598 150.505 101.552 154.721 102.482C158.936 103.411 167.912 105.052 167.912 105.052L167.471 100.651L147.941 98.5623" fill="black"/>
</g>
<path d="M141.145 92.6006C142.59 95.6534 145.802 98.9243 152.862 99.6531C166.839 101.099 177.421 101.868 181.993 101.18C186.564 100.491 188.382 90.8102 188.852 90.5118C190.275 89.6109 190.183 86.5408 188.955 85.6227C185.468 83.0174 178.471 81.009 178.001 81.2442C175.225 82.6272 176.131 85.8637 176.131 85.8637L158.431 81.9558C158.431 81.9558 155.563 80.6934 152.082 80.1023" fill="#455A64"/>
<path d="M152.082 80.0962C152.082 80.0962 152.231 80.1077 152.518 80.1536C152.805 80.1995 153.229 80.2798 153.78 80.4003C154.881 80.6528 156.493 81.0717 158.46 81.8751L158.449 81.8694C162.681 82.7932 168.79 84.1188 176.16 85.7256L176.011 85.8863C175.781 84.8992 175.793 83.8147 176.24 82.8277C176.458 82.3342 176.814 81.9038 177.244 81.5652C177.45 81.3816 177.697 81.2611 177.932 81.1176C178.001 81.0889 178.121 81.0775 178.196 81.0775L178.408 81.1004C178.551 81.1119 178.678 81.1463 178.815 81.1693C180.932 81.6456 183.048 82.3973 185.164 83.3212C186.22 83.7917 187.269 84.3197 188.279 84.9624C188.531 85.123 188.772 85.3009 189.019 85.4731C189.271 85.6682 189.489 85.9207 189.627 86.2019C189.919 86.7642 190.034 87.3897 190.045 88.0152C190.051 88.6407 189.931 89.2777 189.632 89.8515C189.466 90.1269 189.265 90.4024 188.984 90.586C188.915 90.6205 188.87 90.7697 188.812 90.9074L188.663 91.3378C188.285 92.5141 187.912 93.7135 187.447 94.8898C186.782 96.5655 186.019 98.2181 184.843 99.5724C184.258 100.238 183.547 100.835 182.692 101.127C182.268 101.288 181.821 101.328 181.396 101.374C180.966 101.437 180.542 101.443 180.117 101.483C178.414 101.581 176.745 101.558 175.11 101.512C173.476 101.466 171.875 101.386 170.321 101.288C164.092 100.886 158.5 100.318 153.803 99.8306C152.633 99.7216 151.509 99.5667 150.465 99.3486C149.427 99.1018 148.452 98.8436 147.58 98.4763C145.825 97.782 144.471 96.8294 143.514 95.917C142.556 94.9931 141.982 94.1266 141.632 93.5241C141.282 92.9216 141.156 92.5773 141.156 92.5773C141.173 92.5658 141.317 92.9043 141.684 93.4954C142.045 94.0807 142.636 94.93 143.594 95.8309C144.552 96.7204 145.899 97.65 147.643 98.3214C148.503 98.6772 149.473 98.9297 150.505 99.165C151.543 99.3715 152.65 99.515 153.826 99.6183C158.523 100.077 164.115 100.628 170.338 101.013C171.893 101.105 173.487 101.185 175.122 101.231C176.751 101.271 178.42 101.294 180.106 101.191C180.524 101.15 180.949 101.139 181.373 101.082C181.798 101.03 182.222 100.996 182.606 100.846C183.392 100.577 184.069 100.02 184.631 99.3715C185.761 98.0632 186.524 96.4335 187.183 94.7751C187.642 93.6044 188.009 92.4166 188.394 91.2345L188.548 90.7926C188.577 90.718 188.606 90.6434 188.64 90.5688C188.663 90.5286 188.675 90.4942 188.715 90.4426C188.738 90.4139 188.766 90.3852 188.789 90.3622L188.829 90.3278C189.065 90.1729 189.237 89.9376 189.386 89.6966C189.655 89.1858 189.77 88.5891 189.764 88.0037C189.753 87.4184 189.644 86.8274 189.38 86.3281C189.248 86.0756 189.07 85.8633 188.852 85.6969C188.611 85.5305 188.371 85.3583 188.13 85.1976C187.143 84.5664 186.105 84.0385 185.056 83.5737C182.962 82.6555 180.846 81.8981 178.769 81.4275C178.643 81.4045 178.511 81.3701 178.385 81.3586L178.196 81.3357C178.139 81.3414 178.121 81.3357 178.064 81.3472C177.846 81.4791 177.611 81.5939 177.422 81.7603C177.026 82.0702 176.693 82.4662 176.492 82.9195C176.08 83.8262 176.057 84.8763 176.269 85.8002L176.315 86.001L176.12 85.9551C168.761 84.3082 162.659 82.9367 158.431 81.9899H158.426L158.42 81.9841C156.476 81.1635 154.87 80.7217 153.78 80.4462C153.235 80.3085 152.811 80.2224 152.524 80.1593C152.226 80.1364 152.082 80.0962 152.082 80.0962Z" fill="#263238"/>
<path d="M181.996 91.4008C181.979 91.4353 181.532 91.2746 180.855 90.9016C180.178 90.5286 179.289 89.9203 178.44 89.0997C177.591 88.2734 176.955 87.4069 176.559 86.747C176.163 86.087 175.985 85.6395 176.02 85.6222C176.106 85.5706 176.978 87.2749 178.652 88.8874C180.298 90.5114 182.042 91.3147 181.996 91.4008Z" fill="#263238"/>
<path d="M57.2182 138.656C57.2182 138.656 60.7684 138.851 62.9766 140.229C65.179 141.612 68.7178 143.752 70.1746 146.409C70.8456 147.631 68.9357 147.889 67.9894 147.178C67.0488 146.466 65.6034 145.135 64.8865 144.969C64.1695 144.802 64.1695 144.802 64.1695 144.802C64.1695 144.802 65.6092 148.01 66.3548 149.135C67.1004 150.259 67.7427 152.187 65.5174 152.279C65.5174 152.279 64.0147 154.23 62.5005 152.784C62.5005 152.784 61.319 154.552 59.4148 152.101C59.4148 152.101 58.3079 153.507 57.8433 152.968C57.3788 152.434 55.8646 151.579 55.423 149.823C54.9813 148.067 53.123 143.804 53.123 143.804L57.2182 138.656Z" fill="#FFBF9D"/>
<path d="M26.9579 91.8596C26.9579 91.8596 24.1819 92.6113 22.4899 95.2166C21.1249 97.3169 20.7062 100.984 21.0962 103.664C21.9221 109.368 24.5432 119.008 26.0115 125.194C26.5162 127.329 27.5601 131.151 30.6171 133.176L52.343 146.214L58.1531 137.583L38.3428 121.43L34.4254 99.2909L26.9579 91.8596Z" fill="#455A64"/>
<path d="M23.1984 113.631C23.2041 113.631 23.2271 113.706 23.2672 113.855C23.3131 114.021 23.3704 114.239 23.445 114.526C23.5999 115.135 23.8235 116.007 24.1103 117.126C24.6781 119.404 25.4983 122.675 26.5135 126.738C27.0297 128.746 28.2226 130.812 30.0924 132.407C31.0101 133.228 32.14 133.825 33.2699 134.519C34.3997 135.202 35.5698 135.908 36.7627 136.625C41.5519 139.517 46.8342 142.714 52.4148 146.082L52.2141 146.128C52.8794 145.141 53.5906 144.085 54.3018 143.023C55.5636 141.147 56.8082 139.299 58.0241 137.503L58.0528 137.698C50.591 131.552 43.8231 125.98 38.4146 121.522L38.3859 121.499L38.3744 121.464C37.0782 116.001 36.1376 111.537 35.5468 108.426C35.2486 106.871 35.0421 105.661 34.9102 104.834C34.8528 104.433 34.807 104.117 34.7725 103.893C34.7439 103.681 34.7381 103.572 34.7381 103.572C34.7381 103.572 34.7668 103.681 34.807 103.887C34.8471 104.111 34.9045 104.421 34.979 104.823C35.1339 105.643 35.3576 106.854 35.673 108.404C36.3039 111.502 37.2789 115.961 38.5981 121.413L38.558 121.349C43.978 125.791 50.763 131.346 58.2363 137.474L58.3396 137.56L58.265 137.675C57.0548 139.471 55.8102 141.319 54.5484 143.201C53.8315 144.263 53.1203 145.319 52.455 146.306L52.3747 146.426L52.2542 146.352C46.6794 142.972 41.397 139.77 36.6136 136.866C35.4207 136.143 34.2564 135.431 33.1265 134.749C32.008 134.054 30.861 133.44 29.9261 132.597C28.0276 130.961 26.8232 128.844 26.307 126.795C25.332 122.727 24.5405 119.439 23.9956 117.16C23.7318 116.036 23.5253 115.158 23.3819 114.549C23.3188 114.262 23.2672 114.039 23.2328 113.872C23.2098 113.712 23.1926 113.637 23.1984 113.631Z" fill="#263238"/>
<path d="M23.5587 94.9355C23.553 94.9183 23.7079 94.8437 24.0004 94.7519C24.2929 94.6544 24.723 94.5453 25.2737 94.465C26.3519 94.3158 27.9578 94.2928 29.5122 95.0388C31.0378 95.8193 32.0816 97.0014 32.6781 97.9253C32.9764 98.3901 33.1657 98.8032 33.2574 99.0959C33.3549 99.3886 33.3721 99.5607 33.3607 99.5665C33.309 99.5837 33.137 98.918 32.5061 98.0458C31.8866 97.1793 30.8371 96.0488 29.3802 95.3085C27.9062 94.6027 26.3577 94.5855 25.2966 94.6773C24.2183 94.7749 23.576 94.9815 23.5587 94.9355Z" fill="#263238"/>
</svg>
