<svg width="45" height="41" viewBox="0 0 45 41" fill="none" xmlns="http://www.w3.org/2000/svg">
<path d="M0.173828 8.87222C0.173828 4.22437 3.93758 0.456543 8.58041 0.456543H36.202C40.8449 0.456543 44.6086 4.22437 44.6086 8.87222V31.7148C44.6086 36.3626 40.8449 40.1305 36.202 40.1305H8.58041C3.93758 40.1305 0.173828 36.3626 0.173828 31.7148V8.87222Z" fill="#E7F4F0"/>
<path d="M33.7518 11.002C33.8009 10.8791 33.8129 10.7445 33.7864 10.6148C33.7598 10.4851 33.6958 10.3661 33.6023 10.2725C33.5088 10.1789 33.3899 10.1149 33.2604 10.0883C33.1309 10.0617 32.9964 10.0737 32.8736 10.1229L13.2205 17.9931L12.6085 18.2366C12.4928 18.2827 12.3921 18.36 12.3176 18.4599C12.2431 18.5598 12.1976 18.6783 12.1861 18.8024C12.1746 18.9266 12.1977 19.0514 12.2527 19.1633C12.3076 19.2751 12.3924 19.3696 12.4977 19.4362L13.0516 19.7879L13.0529 19.7906L19.8012 24.0888L24.0948 30.8446L24.0975 30.8473L24.4487 31.4018C24.5155 31.5068 24.6099 31.5912 24.7215 31.6459C24.8332 31.7006 24.9577 31.7234 25.0815 31.7118C25.2052 31.7002 25.3234 31.6547 25.4229 31.5802C25.5225 31.5057 25.5996 31.4051 25.6457 31.2896L33.7518 11.002ZM31.2754 13.5582L21.1509 23.6939L20.8604 23.2368C20.8072 23.1529 20.7362 23.0818 20.6524 23.0285L20.1957 22.7377L30.3202 12.602L31.9117 11.965L31.2754 13.5582Z" fill="#38A585"/>
</svg>
